<svg width="1920" height="100" viewBox="0 0 1920 100" fill="none" xmlns="http://www.w3.org/2000/svg">
<g clip-path="url(#clip0_1_293)">
<path d="M10.428 39.5813C10.9934 40.1474 11.9356 40.1459 12.5002 39.5813C13.0724 39.0091 13.0724 38.0813 12.5002 37.5091L10.3357 35.3447C9.7635 34.7725 8.83577 34.7725 8.26356 35.3447C7.69136 35.9169 7.69136 36.8446 8.26356 37.4168C8.26356 37.4176 10.428 39.5813 10.428 39.5813Z" fill="#222222"/>
<path d="M-3.69627 54.7676C-1.69661 54.9018 0.28474 54.1076 1.69618 52.6962C3.14576 51.2466 3.90031 49.2813 3.76756 47.3045C3.71339 46.4965 3.01453 45.8862 2.20735 45.9404C1.40016 45.9945 0.789043 46.6934 0.843975 47.5006C0.919506 48.6343 0.475476 49.7726 -0.375964 50.624C-1.2274 51.4755 -2.36571 51.9203 -3.49943 51.844C-4.30815 51.7898 -5.00548 52.4002 -5.05964 53.2081C-5.11381 54.0153 -4.50346 54.7134 -3.69627 54.7676Z" fill="#222222"/>
<path d="M-29.907 59.0737C-35.5817 56.3904 -42.3589 57.5898 -46.7702 62.0583C-52.3503 67.7109 -52.4182 76.9715 -46.9213 82.7011C-44.5615 85.1609 -41.4808 86.7089 -38.1376 87.1376C-37.7088 90.4808 -36.1608 93.5616 -33.7011 95.9213C-30.8645 98.6427 -27.1627 100.001 -23.4609 100C-19.6866 100 -15.9116 98.5878 -13.0582 95.7703C-8.58971 91.359 -7.39037 84.5818 -10.0736 78.907C-10.3849 78.2479 -10.2354 77.4468 -9.70131 76.9135L-0.999992 68.2122L7.70132 76.9135C8.23538 77.4475 8.38492 78.2486 8.07364 78.907C5.39038 84.5818 6.58972 91.359 11.0583 95.7703C13.9124 98.5878 17.6867 100 21.4617 100C25.1627 100 28.8645 98.6427 31.7011 95.9213C34.1608 93.5616 35.7088 90.4808 36.1376 87.1376C39.4808 86.7089 42.5615 85.1609 44.9213 82.7011C46.7111 80.8357 47.9814 78.5126 48.5941 75.985C48.7848 75.1984 48.3011 74.4057 47.5145 74.2157C46.7272 74.025 45.936 74.5079 45.746 75.2945C45.2547 77.3201 44.2385 79.1794 42.8064 80.6725C40.6717 82.898 37.8008 84.1927 34.7231 84.3193C33.9609 84.3506 33.3506 84.961 33.3193 85.7231C33.1926 88.8008 31.8979 91.6718 29.6724 93.8065C25.0773 98.2147 17.6508 98.1606 13.1174 93.6844C9.53314 90.1467 8.57108 84.7115 10.7233 80.1598C11.5618 78.3852 11.1803 76.2482 9.77423 74.8413L1.07291 66.14L15.14 52.0722L23.8413 60.7743C25.2482 62.1804 27.3851 62.5618 29.1597 61.7226C33.7114 59.5711 39.1466 60.5332 42.6851 64.1175C44.3384 65.7914 45.4424 67.91 45.8788 70.2423C46.0275 71.0381 46.7928 71.5622 47.5885 71.4135C48.3843 71.2647 48.9084 70.4995 48.7596 69.7037C48.2149 66.7939 46.8363 64.1503 44.771 62.0583C40.3597 57.5898 33.5825 56.3904 27.9078 59.0737C27.2486 59.385 26.4475 59.2354 25.9142 58.7014L17.2121 50.0001L25.9134 41.2987C26.4475 40.7647 27.2486 40.6159 27.907 40.9272C29.925 41.8809 32.081 42.344 34.2218 42.344C38.1014 42.344 41.9275 40.8219 44.7702 37.9426C50.3504 32.29 50.4183 23.0287 44.9213 17.299C42.5615 14.8393 39.4808 13.2913 36.1376 12.8625C35.7088 9.5193 34.1608 6.43856 31.7019 4.07955C25.9714 -1.41818 16.7109 -1.35028 11.0583 4.22985C6.58972 8.64116 5.39038 15.4183 8.07364 21.0931C8.38492 21.7523 8.23538 22.5533 7.70132 23.0866L-0.999992 31.788L-9.70131 23.0866C-10.2354 22.5533 -10.3849 21.7523 -10.0729 21.0931C-7.39037 15.4183 -8.58971 8.64116 -13.0575 4.22985C-18.7108 -1.35028 -27.9714 -1.41818 -33.7011 4.07879C-36.1608 6.43856 -37.7088 9.5193 -38.1376 12.8625C-41.4808 13.2913 -44.5615 14.8393 -46.9213 17.299C-49.1353 19.6069 -50.5124 22.5198 -50.9038 25.7211C-51.0015 26.5244 -50.43 27.2553 -49.6267 27.3538C-48.824 27.4514 -48.0924 26.88 -47.9947 26.0766C-47.6812 23.5093 -46.5787 21.1755 -44.8064 19.3276C-42.6717 17.1021 -39.8008 15.8074 -36.7231 15.6816C-35.9609 15.6503 -35.3498 15.0392 -35.3193 14.277C-35.1926 11.1993 -33.8979 8.32912 -31.6724 6.19366C-27.0772 1.7854 -19.65 1.84033 -15.1166 6.31573C-11.5331 9.85423 -10.5711 15.2894 -12.7225 19.8403C-13.5618 21.6149 -13.1803 23.7527 -11.7734 25.1588L-3.07213 33.8609L-17.1392 47.9279L-25.8405 39.2266C-27.2474 37.8197 -29.3851 37.4383 -31.159 38.2775C-35.7107 40.429 -41.1458 39.4677 -44.6843 35.8834C-45.9768 34.5734 -46.9228 33.0155 -47.4958 31.2524C-47.746 30.4826 -48.5723 30.0614 -49.3421 30.3117C-50.1119 30.5619 -50.533 31.3882 -50.2828 32.158C-49.5679 34.3591 -48.3861 36.3046 -46.7702 37.9418C-42.3581 42.4104 -35.5817 43.6097 -29.907 40.9264C-29.2486 40.6152 -28.4467 40.7647 -27.9134 41.2987L-19.2113 50.0001L-27.9134 58.7014C-28.4467 59.2354 -29.2486 59.385 -29.907 59.0737ZM9.77346 25.1588C11.1803 23.7527 11.5618 21.6149 10.7226 19.8403C8.57108 15.2894 9.53314 9.85423 13.1167 6.31573C17.6508 1.84033 25.0773 1.7854 29.6724 6.19366C31.8979 8.32836 33.1926 11.1993 33.3193 14.277C33.3506 15.0392 33.9609 15.6495 34.7231 15.6808C37.8008 15.8074 40.6717 17.1021 42.8064 19.3276C47.2147 23.9228 47.1598 31.3493 42.6843 35.8834C39.1466 39.4669 33.7114 40.429 29.1597 38.2775C27.3851 37.4383 25.2474 37.8197 23.8413 39.2266L-11.7734 74.8413C-13.1803 76.2474 -13.5618 78.3852 -12.7225 80.1598C-10.5711 84.7115 -11.5331 90.1467 -15.1166 93.6844C-19.65 98.1606 -27.0772 98.2147 -31.6724 93.8065C-33.8979 91.6718 -35.1926 88.8008 -35.3193 85.7231C-35.3505 84.961 -35.9609 84.3506 -36.7231 84.3193C-39.8008 84.1927 -42.6717 82.898 -44.8064 80.6725C-49.2147 76.0773 -49.1605 68.6509 -44.6843 64.1175C-42.4039 61.8073 -39.3361 60.5866 -36.2241 60.5866C-34.5083 60.5866 -32.7779 60.9581 -31.1597 61.7226C-29.3851 62.5618 -27.2481 62.1804 -25.8413 60.7735L9.77346 25.1588Z" fill="#222222"/>
</g>
<g clip-path="url(#clip1_1_293)">
<path d="M106.509 63.5002C107.058 64.0495 108.007 64.0747 108.581 63.5002C109.153 62.928 109.153 62.0003 108.581 61.4281L106.417 59.2636C105.845 58.6914 104.917 58.6914 104.345 59.2636C103.772 59.8358 103.772 60.7636 104.345 61.3358C104.345 61.3358 106.509 63.4995 106.509 63.5002Z" fill="#666666"/>
<path d="M130.428 39.5813C130.993 40.1474 131.936 40.1459 132.5 39.5813C133.072 39.0091 133.072 38.0813 132.5 37.5091L130.336 35.3447C129.764 34.7725 128.836 34.7725 128.264 35.3447C127.691 35.9169 127.691 36.8446 128.264 37.4168C128.264 37.4176 130.428 39.5813 130.428 39.5813Z" fill="#666666"/>
<path d="M116.304 54.7676C118.303 54.9018 120.285 54.1076 121.696 52.6962C123.146 51.2466 123.9 49.2813 123.768 47.3045C123.713 46.4965 123.015 45.8862 122.207 45.9404C121.4 45.9945 120.789 46.6934 120.844 47.5006C120.92 48.6343 120.475 49.7726 119.624 50.624C118.773 51.4755 117.634 51.9203 116.501 51.844C115.692 51.7898 114.995 52.4002 114.94 53.2081C114.886 54.0153 115.497 54.7134 116.304 54.7676Z" fill="#666666"/>
<path d="M90.093 59.0737C84.4183 56.3904 77.6411 57.5898 73.2298 62.0583C67.6497 67.7109 67.5818 76.9715 73.0787 82.7011C75.4385 85.1609 78.5192 86.7089 81.8624 87.1376C82.2912 90.4808 83.8392 93.5616 86.2989 95.9213C89.1355 98.6427 92.8373 100.001 96.5391 100C100.313 100 104.088 98.5878 106.942 95.7703C111.41 91.359 112.61 84.5818 109.926 78.907C109.615 78.2479 109.765 77.4468 110.299 76.9135L119 68.2122L127.701 76.9135C128.235 77.4475 128.385 78.2486 128.074 78.907C125.39 84.5818 126.59 91.359 131.058 95.7703C133.912 98.5878 137.687 100 141.462 100C145.163 100 148.864 98.6427 151.701 95.9213C154.161 93.5616 155.709 90.4808 156.138 87.1376C159.481 86.7089 162.562 85.1609 164.921 82.7011C166.711 80.8357 167.981 78.5126 168.594 75.985C168.785 75.1984 168.301 74.4057 167.515 74.2157C166.727 74.025 165.936 74.5079 165.746 75.2945C165.255 77.3201 164.238 79.1794 162.806 80.6725C160.672 82.898 157.801 84.1927 154.723 84.3193C153.961 84.3506 153.351 84.961 153.319 85.7231C153.193 88.8008 151.898 91.6718 149.672 93.8065C145.077 98.2147 137.651 98.1606 133.117 93.6844C129.533 90.1467 128.571 84.7115 130.723 80.1598C131.562 78.3852 131.18 76.2482 129.774 74.8413L121.073 66.14L135.14 52.0722L143.841 60.7743C145.248 62.1804 147.385 62.5618 149.16 61.7226C153.711 59.5711 159.147 60.5332 162.685 64.1175C164.338 65.7914 165.442 67.91 165.879 70.2423C166.028 71.0381 166.793 71.5622 167.589 71.4135C168.384 71.2647 168.908 70.4995 168.76 69.7037C168.215 66.7939 166.836 64.1503 164.771 62.0583C160.36 57.5898 153.582 56.3904 147.908 59.0737C147.249 59.385 146.447 59.2354 145.914 58.7014L137.212 50.0001L145.913 41.2987C146.447 40.7647 147.249 40.6159 147.907 40.9272C149.925 41.8809 152.081 42.344 154.222 42.344C158.101 42.344 161.928 40.8219 164.77 37.9426C170.35 32.29 170.418 23.0287 164.921 17.299C162.562 14.8393 159.481 13.2913 156.138 12.8625C155.709 9.5193 154.161 6.43856 151.702 4.07955C145.971 -1.41818 136.711 -1.35028 131.058 4.22985C126.59 8.64116 125.39 15.4183 128.074 21.0931C128.385 21.7523 128.235 22.5533 127.701 23.0866L119 31.788L110.299 23.0866C109.765 22.5533 109.615 21.7523 109.927 21.0931C112.61 15.4183 111.41 8.64116 106.943 4.22985C101.289 -1.35028 92.0286 -1.41818 86.2989 4.07879C83.8392 6.43856 82.2912 9.5193 81.8624 12.8625C78.5192 13.2913 75.4385 14.8393 73.0787 17.299C70.8647 19.6069 69.4876 22.5198 69.0962 25.7211C68.9985 26.5244 69.57 27.2553 70.3733 27.3538C71.176 27.4514 71.9076 26.88 72.0053 26.0766C72.3188 23.5093 73.4213 21.1755 75.1936 19.3276C77.3283 17.1021 80.1992 15.8074 83.2769 15.6816C84.0391 15.6503 84.6502 15.0392 84.6807 14.277C84.8074 11.1993 86.1021 8.32912 88.3276 6.19366C92.9228 1.7854 100.35 1.84033 104.883 6.31573C108.467 9.85423 109.429 15.2894 107.277 19.8403C106.438 21.6149 106.82 23.7527 108.227 25.1588L116.928 33.8609L102.861 47.9279L94.1595 39.2266C92.7526 37.8197 90.6149 37.4383 88.841 38.2775C84.2893 40.429 78.8542 39.4677 75.3157 35.8834C74.0232 34.5734 73.0772 33.0155 72.5042 31.2524C72.254 30.4826 71.4277 30.0614 70.6579 30.3117C69.8881 30.5619 69.467 31.3882 69.7172 32.158C70.4321 34.3591 71.6139 36.3046 73.2298 37.9418C77.6419 42.4104 84.4183 43.6097 90.093 40.9264C90.7514 40.6152 91.5533 40.7647 92.0866 41.2987L100.789 50.0001L92.0866 58.7014C91.5533 59.2354 90.7514 59.385 90.093 59.0737ZM129.773 25.1588C131.18 23.7527 131.562 21.6149 130.723 19.8403C128.571 15.2894 129.533 9.85423 133.117 6.31573C137.651 1.84033 145.077 1.7854 149.672 6.19366C151.898 8.32836 153.193 11.1993 153.319 14.277C153.351 15.0392 153.961 15.6495 154.723 15.6808C157.801 15.8074 160.672 17.1021 162.806 19.3276C167.215 23.9228 167.16 31.3493 162.684 35.8834C159.147 39.4669 153.711 40.429 149.16 38.2775C147.385 37.4383 145.247 37.8197 143.841 39.2266L108.227 74.8413C106.82 76.2474 106.438 78.3852 107.277 80.1598C109.429 84.7115 108.467 90.1467 104.883 93.6844C100.35 98.1606 92.9228 98.2147 88.3276 93.8065C86.1021 91.6718 84.8074 88.8008 84.6807 85.7231C84.6495 84.961 84.0391 84.3506 83.2769 84.3193C80.1992 84.1927 77.3283 82.898 75.1936 80.6725C70.7853 76.0773 70.8395 68.6509 75.3157 64.1175C77.5961 61.8073 80.6639 60.5866 83.7759 60.5866C85.4917 60.5866 87.2221 60.9581 88.8403 61.7226C90.6149 62.5618 92.7519 62.1804 94.1587 60.7735L129.773 25.1588Z" fill="#666666"/>
</g>
<g clip-path="url(#clip2_1_293)">
<path d="M226.509 63.5002C227.058 64.0495 228.007 64.0747 228.581 63.5002C229.153 62.928 229.153 62.0003 228.581 61.4281L226.417 59.2636C225.845 58.6914 224.917 58.6914 224.345 59.2636C223.772 59.8358 223.772 60.7636 224.345 61.3358C224.345 61.3358 226.509 63.4995 226.509 63.5002Z" fill="#222222"/>
<path d="M250.428 39.5813C250.993 40.1474 251.936 40.1459 252.5 39.5813C253.072 39.0091 253.072 38.0813 252.5 37.5091L250.336 35.3447C249.764 34.7725 248.836 34.7725 248.264 35.3447C247.691 35.9169 247.691 36.8446 248.264 37.4168C248.264 37.4176 250.428 39.5813 250.428 39.5813Z" fill="#222222"/>
<path d="M236.304 54.7676C238.303 54.9018 240.285 54.1076 241.696 52.6962C243.146 51.2466 243.9 49.2813 243.768 47.3045C243.713 46.4965 243.015 45.8862 242.207 45.9404C241.4 45.9945 240.789 46.6934 240.844 47.5006C240.92 48.6343 240.475 49.7726 239.624 50.624C238.773 51.4755 237.634 51.9203 236.501 51.844C235.692 51.7898 234.995 52.4002 234.94 53.2081C234.886 54.0153 235.497 54.7134 236.304 54.7676Z" fill="#222222"/>
<path d="M210.093 59.0737C204.418 56.3904 197.641 57.5898 193.23 62.0583C187.65 67.7109 187.582 76.9715 193.079 82.7011C195.438 85.1609 198.519 86.7089 201.862 87.1376C202.291 90.4808 203.839 93.5616 206.299 95.9213C209.136 98.6427 212.837 100.001 216.539 100C220.313 100 224.088 98.5878 226.942 95.7703C231.41 91.359 232.61 84.5818 229.926 78.907C229.615 78.2479 229.765 77.4468 230.299 76.9135L239 68.2122L247.701 76.9135C248.235 77.4475 248.385 78.2486 248.074 78.907C245.39 84.5818 246.59 91.359 251.058 95.7703C253.912 98.5878 257.687 100 261.462 100C265.163 100 268.864 98.6427 271.701 95.9213C274.161 93.5616 275.709 90.4808 276.138 87.1376C279.481 86.7089 282.562 85.1609 284.921 82.7011C286.711 80.8357 287.981 78.5126 288.594 75.985C288.785 75.1984 288.301 74.4057 287.515 74.2157C286.727 74.025 285.936 74.5079 285.746 75.2945C285.255 77.3201 284.238 79.1794 282.806 80.6725C280.672 82.898 277.801 84.1927 274.723 84.3193C273.961 84.3506 273.351 84.961 273.319 85.7231C273.193 88.8008 271.898 91.6718 269.672 93.8065C265.077 98.2147 257.651 98.1606 253.117 93.6844C249.533 90.1467 248.571 84.7115 250.723 80.1598C251.562 78.3852 251.18 76.2482 249.774 74.8413L241.073 66.14L255.14 52.0722L263.841 60.7743C265.248 62.1804 267.385 62.5618 269.16 61.7226C273.711 59.5711 279.147 60.5332 282.685 64.1175C284.338 65.7914 285.442 67.91 285.879 70.2423C286.028 71.0381 286.793 71.5622 287.589 71.4135C288.384 71.2647 288.908 70.4995 288.76 69.7037C288.215 66.7939 286.836 64.1503 284.771 62.0583C280.36 57.5898 273.582 56.3904 267.908 59.0737C267.249 59.385 266.447 59.2354 265.914 58.7014L257.212 50.0001L265.913 41.2987C266.447 40.7647 267.249 40.6159 267.907 40.9272C269.925 41.8809 272.081 42.344 274.222 42.344C278.101 42.344 281.928 40.8219 284.77 37.9426C290.35 32.29 290.418 23.0287 284.921 17.299C282.562 14.8393 279.481 13.2913 276.138 12.8625C275.709 9.5193 274.161 6.43856 271.702 4.07955C265.971 -1.41818 256.711 -1.35028 251.058 4.22985C246.59 8.64116 245.39 15.4183 248.074 21.0931C248.385 21.7523 248.235 22.5533 247.701 23.0866L239 31.788L230.299 23.0866C229.765 22.5533 229.615 21.7523 229.927 21.0931C232.61 15.4183 231.41 8.64116 226.943 4.22985C221.289 -1.35028 212.029 -1.41818 206.299 4.07879C203.839 6.43856 202.291 9.5193 201.862 12.8625C198.519 13.2913 195.438 14.8393 193.079 17.299C190.865 19.6069 189.488 22.5198 189.096 25.7211C188.999 26.5244 189.57 27.2553 190.373 27.3538C191.176 27.4514 191.908 26.88 192.005 26.0766C192.319 23.5093 193.421 21.1755 195.194 19.3276C197.328 17.1021 200.199 15.8074 203.277 15.6816C204.039 15.6503 204.65 15.0392 204.681 14.277C204.807 11.1993 206.102 8.32912 208.328 6.19366C212.923 1.7854 220.35 1.84033 224.883 6.31573C228.467 9.85423 229.429 15.2894 227.277 19.8403C226.438 21.6149 226.82 23.7527 228.227 25.1588L236.928 33.8609L222.861 47.9279L214.159 39.2266C212.753 37.8197 210.615 37.4383 208.841 38.2775C204.289 40.429 198.854 39.4677 195.316 35.8834C194.023 34.5734 193.077 33.0155 192.504 31.2524C192.254 30.4826 191.428 30.0614 190.658 30.3117C189.888 30.5619 189.467 31.3882 189.717 32.158C190.432 34.3591 191.614 36.3046 193.23 37.9418C197.642 42.4104 204.418 43.6097 210.093 40.9264C210.751 40.6152 211.553 40.7647 212.087 41.2987L220.789 50.0001L212.087 58.7014C211.553 59.2354 210.751 59.385 210.093 59.0737ZM249.773 25.1588C251.18 23.7527 251.562 21.6149 250.723 19.8403C248.571 15.2894 249.533 9.85423 253.117 6.31573C257.651 1.84033 265.077 1.7854 269.672 6.19366C271.898 8.32836 273.193 11.1993 273.319 14.277C273.351 15.0392 273.961 15.6495 274.723 15.6808C277.801 15.8074 280.672 17.1021 282.806 19.3276C287.215 23.9228 287.16 31.3493 282.684 35.8834C279.147 39.4669 273.711 40.429 269.16 38.2775C267.385 37.4383 265.247 37.8197 263.841 39.2266L228.227 74.8413C226.82 76.2474 226.438 78.3852 227.277 80.1598C229.429 84.7115 228.467 90.1467 224.883 93.6844C220.35 98.1606 212.923 98.2147 208.328 93.8065C206.102 91.6718 204.807 88.8008 204.681 85.7231C204.649 84.961 204.039 84.3506 203.277 84.3193C200.199 84.1927 197.328 82.898 195.194 80.6725C190.785 76.0773 190.84 68.6509 195.316 64.1175C197.596 61.8073 200.664 60.5866 203.776 60.5866C205.492 60.5866 207.222 60.9581 208.84 61.7226C210.615 62.5618 212.752 62.1804 214.159 60.7735L249.773 25.1588Z" fill="#222222"/>
</g>
<g clip-path="url(#clip3_1_293)">
<path d="M346.509 63.5002C347.058 64.0495 348.007 64.0747 348.581 63.5002C349.153 62.928 349.153 62.0003 348.581 61.4281L346.417 59.2636C345.845 58.6914 344.917 58.6914 344.345 59.2636C343.772 59.8358 343.772 60.7636 344.345 61.3358C344.345 61.3358 346.509 63.4995 346.509 63.5002Z" fill="#666666"/>
<path d="M370.428 39.5813C370.993 40.1474 371.936 40.1459 372.5 39.5813C373.072 39.0091 373.072 38.0813 372.5 37.5091L370.336 35.3447C369.764 34.7725 368.836 34.7725 368.264 35.3447C367.691 35.9169 367.691 36.8446 368.264 37.4168C368.264 37.4176 370.428 39.5813 370.428 39.5813Z" fill="#666666"/>
<path d="M356.304 54.7676C358.303 54.9018 360.285 54.1076 361.696 52.6962C363.146 51.2466 363.9 49.2813 363.768 47.3045C363.713 46.4965 363.015 45.8862 362.207 45.9404C361.4 45.9945 360.789 46.6934 360.844 47.5006C360.92 48.6343 360.475 49.7726 359.624 50.624C358.773 51.4755 357.634 51.9203 356.501 51.844C355.692 51.7898 354.995 52.4002 354.94 53.2081C354.886 54.0153 355.497 54.7134 356.304 54.7676Z" fill="#666666"/>
<path d="M330.093 59.0737C324.418 56.3904 317.641 57.5898 313.23 62.0583C307.65 67.7109 307.582 76.9715 313.079 82.7011C315.438 85.1609 318.519 86.7089 321.862 87.1376C322.291 90.4808 323.839 93.5616 326.299 95.9213C329.136 98.6427 332.837 100.001 336.539 100C340.313 100 344.088 98.5878 346.942 95.7703C351.41 91.359 352.61 84.5818 349.926 78.907C349.615 78.2479 349.765 77.4468 350.299 76.9135L359 68.2122L367.701 76.9135C368.235 77.4475 368.385 78.2486 368.074 78.907C365.39 84.5818 366.59 91.359 371.058 95.7703C373.912 98.5878 377.687 100 381.462 100C385.163 100 388.864 98.6427 391.701 95.9213C394.161 93.5616 395.709 90.4808 396.138 87.1376C399.481 86.7089 402.562 85.1609 404.921 82.7011C406.711 80.8357 407.981 78.5126 408.594 75.985C408.785 75.1984 408.301 74.4057 407.515 74.2157C406.727 74.025 405.936 74.5079 405.746 75.2945C405.255 77.3201 404.238 79.1794 402.806 80.6725C400.672 82.898 397.801 84.1927 394.723 84.3193C393.961 84.3506 393.351 84.961 393.319 85.7231C393.193 88.8008 391.898 91.6718 389.672 93.8065C385.077 98.2147 377.651 98.1606 373.117 93.6844C369.533 90.1467 368.571 84.7115 370.723 80.1598C371.562 78.3852 371.18 76.2482 369.774 74.8413L361.073 66.14L375.14 52.0722L383.841 60.7743C385.248 62.1804 387.385 62.5618 389.16 61.7226C393.711 59.5711 399.147 60.5332 402.685 64.1175C404.338 65.7914 405.442 67.91 405.879 70.2423C406.028 71.0381 406.793 71.5622 407.589 71.4135C408.384 71.2647 408.908 70.4995 408.76 69.7037C408.215 66.7939 406.836 64.1503 404.771 62.0583C400.36 57.5898 393.582 56.3904 387.908 59.0737C387.249 59.385 386.447 59.2354 385.914 58.7014L377.212 50.0001L385.913 41.2987C386.447 40.7647 387.249 40.6159 387.907 40.9272C389.925 41.8809 392.081 42.344 394.222 42.344C398.101 42.344 401.928 40.8219 404.77 37.9426C410.35 32.29 410.418 23.0287 404.921 17.299C402.562 14.8393 399.481 13.2913 396.138 12.8625C395.709 9.5193 394.161 6.43856 391.702 4.07955C385.971 -1.41818 376.711 -1.35028 371.058 4.22985C366.59 8.64116 365.39 15.4183 368.074 21.0931C368.385 21.7523 368.235 22.5533 367.701 23.0866L359 31.788L350.299 23.0866C349.765 22.5533 349.615 21.7523 349.927 21.0931C352.61 15.4183 351.41 8.64116 346.943 4.22985C341.289 -1.35028 332.029 -1.41818 326.299 4.07879C323.839 6.43856 322.291 9.5193 321.862 12.8625C318.519 13.2913 315.438 14.8393 313.079 17.299C310.865 19.6069 309.488 22.5198 309.096 25.7211C308.999 26.5244 309.57 27.2553 310.373 27.3538C311.176 27.4514 311.908 26.88 312.005 26.0766C312.319 23.5093 313.421 21.1755 315.194 19.3276C317.328 17.1021 320.199 15.8074 323.277 15.6816C324.039 15.6503 324.65 15.0392 324.681 14.277C324.807 11.1993 326.102 8.32912 328.328 6.19366C332.923 1.7854 340.35 1.84033 344.883 6.31573C348.467 9.85423 349.429 15.2894 347.277 19.8403C346.438 21.6149 346.82 23.7527 348.227 25.1588L356.928 33.8609L342.861 47.9279L334.159 39.2266C332.753 37.8197 330.615 37.4383 328.841 38.2775C324.289 40.429 318.854 39.4677 315.316 35.8834C314.023 34.5734 313.077 33.0155 312.504 31.2524C312.254 30.4826 311.428 30.0614 310.658 30.3117C309.888 30.5619 309.467 31.3882 309.717 32.158C310.432 34.3591 311.614 36.3046 313.23 37.9418C317.642 42.4104 324.418 43.6097 330.093 40.9264C330.751 40.6152 331.553 40.7647 332.087 41.2987L340.789 50.0001L332.087 58.7014C331.553 59.2354 330.751 59.385 330.093 59.0737ZM369.773 25.1588C371.18 23.7527 371.562 21.6149 370.723 19.8403C368.571 15.2894 369.533 9.85423 373.117 6.31573C377.651 1.84033 385.077 1.7854 389.672 6.19366C391.898 8.32836 393.193 11.1993 393.319 14.277C393.351 15.0392 393.961 15.6495 394.723 15.6808C397.801 15.8074 400.672 17.1021 402.806 19.3276C407.215 23.9228 407.16 31.3493 402.684 35.8834C399.147 39.4669 393.711 40.429 389.16 38.2775C387.385 37.4383 385.247 37.8197 383.841 39.2266L348.227 74.8413C346.82 76.2474 346.438 78.3852 347.277 80.1598C349.429 84.7115 348.467 90.1467 344.883 93.6844C340.35 98.1606 332.923 98.2147 328.328 93.8065C326.102 91.6718 324.807 88.8008 324.681 85.7231C324.649 84.961 324.039 84.3506 323.277 84.3193C320.199 84.1927 317.328 82.898 315.194 80.6725C310.785 76.0773 310.84 68.6509 315.316 64.1175C317.596 61.8073 320.664 60.5866 323.776 60.5866C325.492 60.5866 327.222 60.9581 328.84 61.7226C330.615 62.5618 332.752 62.1804 334.159 60.7735L369.773 25.1588Z" fill="#666666"/>
</g>
<g clip-path="url(#clip4_1_293)">
<path d="M466.509 63.5002C467.058 64.0495 468.007 64.0747 468.581 63.5002C469.153 62.928 469.153 62.0003 468.581 61.4281L466.417 59.2636C465.845 58.6914 464.917 58.6914 464.345 59.2636C463.772 59.8358 463.772 60.7636 464.345 61.3358C464.345 61.3358 466.509 63.4995 466.509 63.5002Z" fill="#222222"/>
<path d="M490.428 39.5813C490.993 40.1474 491.936 40.1459 492.5 39.5813C493.072 39.0091 493.072 38.0813 492.5 37.5091L490.336 35.3447C489.764 34.7725 488.836 34.7725 488.264 35.3447C487.691 35.9169 487.691 36.8446 488.264 37.4168C488.264 37.4176 490.428 39.5813 490.428 39.5813Z" fill="#222222"/>
<path d="M476.304 54.7676C478.303 54.9018 480.285 54.1076 481.696 52.6962C483.146 51.2466 483.9 49.2813 483.768 47.3045C483.713 46.4965 483.015 45.8862 482.207 45.9404C481.4 45.9945 480.789 46.6934 480.844 47.5006C480.92 48.6343 480.475 49.7726 479.624 50.624C478.773 51.4755 477.634 51.9203 476.501 51.844C475.692 51.7898 474.995 52.4002 474.94 53.2081C474.886 54.0153 475.497 54.7134 476.304 54.7676Z" fill="#222222"/>
<path d="M450.093 59.0737C444.418 56.3904 437.641 57.5898 433.23 62.0583C427.65 67.7109 427.582 76.9715 433.079 82.7011C435.438 85.1609 438.519 86.7089 441.862 87.1376C442.291 90.4808 443.839 93.5616 446.299 95.9213C449.136 98.6427 452.837 100.001 456.539 100C460.313 100 464.088 98.5878 466.942 95.7703C471.41 91.359 472.61 84.5818 469.926 78.907C469.615 78.2479 469.765 77.4468 470.299 76.9135L479 68.2122L487.701 76.9135C488.235 77.4475 488.385 78.2486 488.074 78.907C485.39 84.5818 486.59 91.359 491.058 95.7703C493.912 98.5878 497.687 100 501.462 100C505.163 100 508.864 98.6427 511.701 95.9213C514.161 93.5616 515.709 90.4808 516.138 87.1376C519.481 86.7089 522.562 85.1609 524.921 82.7011C526.711 80.8357 527.981 78.5126 528.594 75.985C528.785 75.1984 528.301 74.4057 527.515 74.2157C526.727 74.025 525.936 74.5079 525.746 75.2945C525.255 77.3201 524.238 79.1794 522.806 80.6725C520.672 82.898 517.801 84.1927 514.723 84.3193C513.961 84.3506 513.351 84.961 513.319 85.7231C513.193 88.8008 511.898 91.6718 509.672 93.8065C505.077 98.2147 497.651 98.1606 493.117 93.6844C489.533 90.1467 488.571 84.7115 490.723 80.1598C491.562 78.3852 491.18 76.2482 489.774 74.8413L481.073 66.14L495.14 52.0722L503.841 60.7743C505.248 62.1804 507.385 62.5618 509.16 61.7226C513.711 59.5711 519.147 60.5332 522.685 64.1175C524.338 65.7914 525.442 67.91 525.879 70.2423C526.028 71.0381 526.793 71.5622 527.589 71.4135C528.384 71.2647 528.908 70.4995 528.76 69.7037C528.215 66.7939 526.836 64.1503 524.771 62.0583C520.36 57.5898 513.582 56.3904 507.908 59.0737C507.249 59.385 506.447 59.2354 505.914 58.7014L497.212 50.0001L505.913 41.2987C506.447 40.7647 507.249 40.6159 507.907 40.9272C509.925 41.8809 512.081 42.344 514.222 42.344C518.101 42.344 521.928 40.8219 524.77 37.9426C530.35 32.29 530.418 23.0287 524.921 17.299C522.562 14.8393 519.481 13.2913 516.138 12.8625C515.709 9.5193 514.161 6.43856 511.702 4.07955C505.971 -1.41818 496.711 -1.35028 491.058 4.22985C486.59 8.64116 485.39 15.4183 488.074 21.0931C488.385 21.7523 488.235 22.5533 487.701 23.0866L479 31.788L470.299 23.0866C469.765 22.5533 469.615 21.7523 469.927 21.0931C472.61 15.4183 471.41 8.64116 466.943 4.22985C461.289 -1.35028 452.029 -1.41818 446.299 4.07879C443.839 6.43856 442.291 9.5193 441.862 12.8625C438.519 13.2913 435.438 14.8393 433.079 17.299C430.865 19.6069 429.488 22.5198 429.096 25.7211C428.999 26.5244 429.57 27.2553 430.373 27.3538C431.176 27.4514 431.908 26.88 432.005 26.0766C432.319 23.5093 433.421 21.1755 435.194 19.3276C437.328 17.1021 440.199 15.8074 443.277 15.6816C444.039 15.6503 444.65 15.0392 444.681 14.277C444.807 11.1993 446.102 8.32912 448.328 6.19366C452.923 1.7854 460.35 1.84033 464.883 6.31573C468.467 9.85423 469.429 15.2894 467.277 19.8403C466.438 21.6149 466.82 23.7527 468.227 25.1588L476.928 33.8609L462.861 47.9279L454.159 39.2266C452.753 37.8197 450.615 37.4383 448.841 38.2775C444.289 40.429 438.854 39.4677 435.316 35.8834C434.023 34.5734 433.077 33.0155 432.504 31.2524C432.254 30.4826 431.428 30.0614 430.658 30.3117C429.888 30.5619 429.467 31.3882 429.717 32.158C430.432 34.3591 431.614 36.3046 433.23 37.9418C437.642 42.4104 444.418 43.6097 450.093 40.9264C450.751 40.6152 451.553 40.7647 452.087 41.2987L460.789 50.0001L452.087 58.7014C451.553 59.2354 450.751 59.385 450.093 59.0737ZM489.773 25.1588C491.18 23.7527 491.562 21.6149 490.723 19.8403C488.571 15.2894 489.533 9.85423 493.117 6.31573C497.651 1.84033 505.077 1.7854 509.672 6.19366C511.898 8.32836 513.193 11.1993 513.319 14.277C513.351 15.0392 513.961 15.6495 514.723 15.6808C517.801 15.8074 520.672 17.1021 522.806 19.3276C527.215 23.9228 527.16 31.3493 522.684 35.8834C519.147 39.4669 513.711 40.429 509.16 38.2775C507.385 37.4383 505.247 37.8197 503.841 39.2266L468.227 74.8413C466.82 76.2474 466.438 78.3852 467.277 80.1598C469.429 84.7115 468.467 90.1467 464.883 93.6844C460.35 98.1606 452.923 98.2147 448.328 93.8065C446.102 91.6718 444.807 88.8008 444.681 85.7231C444.649 84.961 444.039 84.3506 443.277 84.3193C440.199 84.1927 437.328 82.898 435.194 80.6725C430.785 76.0773 430.84 68.6509 435.316 64.1175C437.596 61.8073 440.664 60.5866 443.776 60.5866C445.492 60.5866 447.222 60.9581 448.84 61.7226C450.615 62.5618 452.752 62.1804 454.159 60.7735L489.773 25.1588Z" fill="#222222"/>
</g>
<g clip-path="url(#clip5_1_293)">
<path d="M586.509 63.5002C587.058 64.0495 588.007 64.0747 588.581 63.5002C589.153 62.928 589.153 62.0003 588.581 61.4281L586.417 59.2636C585.845 58.6914 584.917 58.6914 584.345 59.2636C583.772 59.8358 583.772 60.7636 584.345 61.3358C584.345 61.3358 586.509 63.4995 586.509 63.5002Z" fill="#666666"/>
<path d="M610.428 39.5813C610.993 40.1474 611.936 40.1459 612.5 39.5813C613.072 39.0091 613.072 38.0813 612.5 37.5091L610.336 35.3447C609.764 34.7725 608.836 34.7725 608.264 35.3447C607.691 35.9169 607.691 36.8446 608.264 37.4168C608.264 37.4176 610.428 39.5813 610.428 39.5813Z" fill="#666666"/>
<path d="M596.304 54.7676C598.303 54.9018 600.285 54.1076 601.696 52.6962C603.146 51.2466 603.9 49.2813 603.768 47.3045C603.713 46.4965 603.015 45.8862 602.207 45.9404C601.4 45.9945 600.789 46.6934 600.844 47.5006C600.92 48.6343 600.475 49.7726 599.624 50.624C598.773 51.4755 597.634 51.9203 596.501 51.844C595.692 51.7898 594.995 52.4002 594.94 53.2081C594.886 54.0153 595.497 54.7134 596.304 54.7676Z" fill="#666666"/>
<path d="M570.093 59.0737C564.418 56.3904 557.641 57.5898 553.23 62.0583C547.65 67.7109 547.582 76.9715 553.079 82.7011C555.438 85.1609 558.519 86.7089 561.862 87.1376C562.291 90.4808 563.839 93.5616 566.299 95.9213C569.136 98.6427 572.837 100.001 576.539 100C580.313 100 584.088 98.5878 586.942 95.7703C591.41 91.359 592.61 84.5818 589.926 78.907C589.615 78.2479 589.765 77.4468 590.299 76.9135L599 68.2122L607.701 76.9135C608.235 77.4475 608.385 78.2486 608.074 78.907C605.39 84.5818 606.59 91.359 611.058 95.7703C613.912 98.5878 617.687 100 621.462 100C625.163 100 628.864 98.6427 631.701 95.9213C634.161 93.5616 635.709 90.4808 636.138 87.1376C639.481 86.7089 642.561 85.1609 644.921 82.7011C646.711 80.8357 647.981 78.5126 648.594 75.985C648.785 75.1984 648.301 74.4057 647.514 74.2157C646.727 74.025 645.936 74.5079 645.746 75.2945C645.255 77.3201 644.238 79.1794 642.806 80.6725C640.672 82.898 637.801 84.1927 634.723 84.3193C633.961 84.3506 633.351 84.961 633.319 85.7231C633.193 88.8008 631.898 91.6718 629.672 93.8065C625.077 98.2147 617.651 98.1606 613.117 93.6844C609.533 90.1467 608.571 84.7115 610.723 80.1598C611.562 78.3852 611.18 76.2482 609.774 74.8413L601.073 66.14L615.14 52.0722L623.841 60.7743C625.248 62.1804 627.385 62.5618 629.16 61.7226C633.711 59.5711 639.147 60.5332 642.685 64.1175C644.338 65.7914 645.442 67.91 645.879 70.2423C646.028 71.0381 646.793 71.5622 647.588 71.4135C648.384 71.2647 648.908 70.4995 648.76 69.7037C648.215 66.7939 646.836 64.1503 644.771 62.0583C640.36 57.5898 633.582 56.3904 627.908 59.0737C627.249 59.385 626.447 59.2354 625.914 58.7014L617.212 50.0001L625.913 41.2987C626.447 40.7647 627.249 40.6159 627.907 40.9272C629.925 41.8809 632.081 42.344 634.222 42.344C638.101 42.344 641.927 40.8219 644.77 37.9426C650.35 32.29 650.418 23.0287 644.921 17.299C642.561 14.8393 639.481 13.2913 636.138 12.8625C635.709 9.5193 634.161 6.43856 631.702 4.07955C625.971 -1.41818 616.711 -1.35028 611.058 4.22985C606.59 8.64116 605.39 15.4183 608.074 21.0931C608.385 21.7523 608.235 22.5533 607.701 23.0866L599 31.788L590.299 23.0866C589.765 22.5533 589.615 21.7523 589.927 21.0931C592.61 15.4183 591.41 8.64116 586.942 4.22985C581.289 -1.35028 572.029 -1.41818 566.299 4.07879C563.839 6.43856 562.291 9.5193 561.862 12.8625C558.519 13.2913 555.438 14.8393 553.079 17.299C550.865 19.6069 549.488 22.5198 549.096 25.7211C548.999 26.5244 549.57 27.2553 550.373 27.3538C551.176 27.4514 551.908 26.88 552.005 26.0766C552.319 23.5093 553.421 21.1755 555.194 19.3276C557.328 17.1021 560.199 15.8074 563.277 15.6816C564.039 15.6503 564.65 15.0392 564.681 14.277C564.807 11.1993 566.102 8.32912 568.328 6.19366C572.923 1.7854 580.35 1.84033 584.883 6.31573C588.467 9.85423 589.429 15.2894 587.277 19.8403C586.438 21.6149 586.82 23.7527 588.227 25.1588L596.928 33.8609L582.861 47.9279L574.159 39.2266C572.753 37.8197 570.615 37.4383 568.841 38.2775C564.289 40.429 558.854 39.4677 555.316 35.8834C554.023 34.5734 553.077 33.0155 552.504 31.2524C552.254 30.4826 551.428 30.0614 550.658 30.3117C549.888 30.5619 549.467 31.3882 549.717 32.158C550.432 34.3591 551.614 36.3046 553.23 37.9418C557.642 42.4104 564.418 43.6097 570.093 40.9264C570.751 40.6152 571.553 40.7647 572.087 41.2987L580.789 50.0001L572.087 58.7014C571.553 59.2354 570.751 59.385 570.093 59.0737ZM609.773 25.1588C611.18 23.7527 611.562 21.6149 610.723 19.8403C608.571 15.2894 609.533 9.85423 613.117 6.31573C617.651 1.84033 625.077 1.7854 629.672 6.19366C631.898 8.32836 633.193 11.1993 633.319 14.277C633.351 15.0392 633.961 15.6495 634.723 15.6808C637.801 15.8074 640.672 17.1021 642.806 19.3276C647.215 23.9228 647.16 31.3493 642.684 35.8834C639.147 39.4669 633.711 40.429 629.16 38.2775C627.385 37.4383 625.247 37.8197 623.841 39.2266L588.227 74.8413C586.82 76.2474 586.438 78.3852 587.277 80.1598C589.429 84.7115 588.467 90.1467 584.883 93.6844C580.35 98.1606 572.923 98.2147 568.328 93.8065C566.102 91.6718 564.807 88.8008 564.681 85.7231C564.649 84.961 564.039 84.3506 563.277 84.3193C560.199 84.1927 557.328 82.898 555.194 80.6725C550.785 76.0773 550.839 68.6509 555.316 64.1175C557.596 61.8073 560.664 60.5866 563.776 60.5866C565.492 60.5866 567.222 60.9581 568.84 61.7226C570.615 62.5618 572.752 62.1804 574.159 60.7735L609.773 25.1588Z" fill="#666666"/>
</g>
<g clip-path="url(#clip6_1_293)">
<path d="M706.509 63.5002C707.058 64.0495 708.007 64.0747 708.581 63.5002C709.153 62.928 709.153 62.0003 708.581 61.4281L706.417 59.2636C705.845 58.6914 704.917 58.6914 704.345 59.2636C703.772 59.8358 703.772 60.7636 704.345 61.3358C704.345 61.3358 706.509 63.4995 706.509 63.5002Z" fill="#222222"/>
<path d="M730.428 39.5813C730.993 40.1474 731.936 40.1459 732.5 39.5813C733.072 39.0091 733.072 38.0813 732.5 37.5091L730.336 35.3447C729.763 34.7725 728.836 34.7725 728.264 35.3447C727.691 35.9169 727.691 36.8446 728.264 37.4168C728.264 37.4176 730.428 39.5813 730.428 39.5813Z" fill="#222222"/>
<path d="M716.304 54.7676C718.303 54.9018 720.285 54.1076 721.696 52.6962C723.146 51.2466 723.9 49.2813 723.768 47.3045C723.713 46.4965 723.015 45.8862 722.207 45.9404C721.4 45.9945 720.789 46.6934 720.844 47.5006C720.92 48.6343 720.475 49.7726 719.624 50.624C718.773 51.4755 717.634 51.9203 716.501 51.844C715.692 51.7898 714.995 52.4002 714.94 53.2081C714.886 54.0153 715.497 54.7134 716.304 54.7676Z" fill="#222222"/>
<path d="M690.093 59.0737C684.418 56.3904 677.641 57.5898 673.23 62.0583C667.65 67.7109 667.582 76.9715 673.079 82.7011C675.438 85.1609 678.519 86.7089 681.862 87.1376C682.291 90.4808 683.839 93.5616 686.299 95.9213C689.136 98.6427 692.837 100.001 696.539 100C700.313 100 704.088 98.5878 706.942 95.7703C711.41 91.359 712.61 84.5818 709.926 78.907C709.615 78.2479 709.765 77.4468 710.299 76.9135L719 68.2122L727.701 76.9135C728.235 77.4475 728.385 78.2486 728.074 78.907C725.39 84.5818 726.59 91.359 731.058 95.7703C733.912 98.5878 737.687 100 741.462 100C745.163 100 748.864 98.6427 751.701 95.9213C754.161 93.5616 755.709 90.4808 756.138 87.1376C759.481 86.7089 762.561 85.1609 764.921 82.7011C766.711 80.8357 767.981 78.5126 768.594 75.985C768.785 75.1984 768.301 74.4057 767.514 74.2157C766.727 74.025 765.936 74.5079 765.746 75.2945C765.255 77.3201 764.238 79.1794 762.806 80.6725C760.672 82.898 757.801 84.1927 754.723 84.3193C753.961 84.3506 753.351 84.961 753.319 85.7231C753.193 88.8008 751.898 91.6718 749.672 93.8065C745.077 98.2147 737.651 98.1606 733.117 93.6844C729.533 90.1467 728.571 84.7115 730.723 80.1598C731.562 78.3852 731.18 76.2482 729.774 74.8413L721.073 66.14L735.14 52.0722L743.841 60.7743C745.248 62.1804 747.385 62.5618 749.16 61.7226C753.711 59.5711 759.147 60.5332 762.685 64.1175C764.338 65.7914 765.442 67.91 765.879 70.2423C766.028 71.0381 766.793 71.5622 767.588 71.4135C768.384 71.2647 768.908 70.4995 768.76 69.7037C768.215 66.7939 766.836 64.1503 764.771 62.0583C760.36 57.5898 753.582 56.3904 747.908 59.0737C747.249 59.385 746.447 59.2354 745.914 58.7014L737.212 50.0001L745.913 41.2987C746.447 40.7647 747.249 40.6159 747.907 40.9272C749.925 41.8809 752.081 42.344 754.222 42.344C758.101 42.344 761.927 40.8219 764.77 37.9426C770.35 32.29 770.418 23.0287 764.921 17.299C762.561 14.8393 759.481 13.2913 756.138 12.8625C755.709 9.5193 754.161 6.43856 751.702 4.07955C745.971 -1.41818 736.711 -1.35028 731.058 4.22985C726.59 8.64116 725.39 15.4183 728.074 21.0931C728.385 21.7523 728.235 22.5533 727.701 23.0866L719 31.788L710.299 23.0866C709.765 22.5533 709.615 21.7523 709.927 21.0931C712.61 15.4183 711.41 8.64116 706.942 4.22985C701.289 -1.35028 692.029 -1.41818 686.299 4.07879C683.839 6.43856 682.291 9.5193 681.862 12.8625C678.519 13.2913 675.438 14.8393 673.079 17.299C670.865 19.6069 669.488 22.5198 669.096 25.7211C668.999 26.5244 669.57 27.2553 670.373 27.3538C671.176 27.4514 671.908 26.88 672.005 26.0766C672.319 23.5093 673.421 21.1755 675.194 19.3276C677.328 17.1021 680.199 15.8074 683.277 15.6816C684.039 15.6503 684.65 15.0392 684.681 14.277C684.807 11.1993 686.102 8.32912 688.328 6.19366C692.923 1.7854 700.35 1.84033 704.883 6.31573C708.467 9.85423 709.429 15.2894 707.277 19.8403C706.438 21.6149 706.82 23.7527 708.227 25.1588L716.928 33.8609L702.861 47.9279L694.159 39.2266C692.753 37.8197 690.615 37.4383 688.841 38.2775C684.289 40.429 678.854 39.4677 675.316 35.8834C674.023 34.5734 673.077 33.0155 672.504 31.2524C672.254 30.4826 671.428 30.0614 670.658 30.3117C669.888 30.5619 669.467 31.3882 669.717 32.158C670.432 34.3591 671.614 36.3046 673.23 37.9418C677.642 42.4104 684.418 43.6097 690.093 40.9264C690.751 40.6152 691.553 40.7647 692.087 41.2987L700.789 50.0001L692.087 58.7014C691.553 59.2354 690.751 59.385 690.093 59.0737ZM729.773 25.1588C731.18 23.7527 731.562 21.6149 730.723 19.8403C728.571 15.2894 729.533 9.85423 733.117 6.31573C737.651 1.84033 745.077 1.7854 749.672 6.19366C751.898 8.32836 753.193 11.1993 753.319 14.277C753.351 15.0392 753.961 15.6495 754.723 15.6808C757.801 15.8074 760.672 17.1021 762.806 19.3276C767.215 23.9228 767.16 31.3493 762.684 35.8834C759.147 39.4669 753.711 40.429 749.16 38.2775C747.385 37.4383 745.247 37.8197 743.841 39.2266L708.227 74.8413C706.82 76.2474 706.438 78.3852 707.277 80.1598C709.429 84.7115 708.467 90.1467 704.883 93.6844C700.35 98.1606 692.923 98.2147 688.328 93.8065C686.102 91.6718 684.807 88.8008 684.681 85.7231C684.649 84.961 684.039 84.3506 683.277 84.3193C680.199 84.1927 677.328 82.898 675.194 80.6725C670.785 76.0773 670.839 68.6509 675.316 64.1175C677.596 61.8073 680.664 60.5866 683.776 60.5866C685.492 60.5866 687.222 60.9581 688.84 61.7226C690.615 62.5618 692.752 62.1804 694.159 60.7735L729.773 25.1588Z" fill="#222222"/>
</g>
<g clip-path="url(#clip7_1_293)">
<path d="M826.509 63.5002C827.058 64.0495 828.007 64.0747 828.581 63.5002C829.153 62.928 829.153 62.0003 828.581 61.4281L826.417 59.2636C825.845 58.6914 824.917 58.6914 824.345 59.2636C823.772 59.8358 823.772 60.7636 824.345 61.3358C824.345 61.3358 826.509 63.4995 826.509 63.5002Z" fill="#666666"/>
<path d="M850.428 39.5813C850.993 40.1474 851.936 40.1459 852.5 39.5813C853.072 39.0091 853.072 38.0813 852.5 37.5091L850.336 35.3447C849.763 34.7725 848.836 34.7725 848.264 35.3447C847.691 35.9169 847.691 36.8446 848.264 37.4168C848.264 37.4176 850.428 39.5813 850.428 39.5813Z" fill="#666666"/>
<path d="M836.304 54.7676C838.303 54.9018 840.285 54.1076 841.696 52.6962C843.146 51.2466 843.9 49.2813 843.768 47.3045C843.713 46.4965 843.015 45.8862 842.207 45.9404C841.4 45.9945 840.789 46.6934 840.844 47.5006C840.92 48.6343 840.475 49.7726 839.624 50.624C838.773 51.4755 837.634 51.9203 836.501 51.844C835.692 51.7898 834.995 52.4002 834.94 53.2081C834.886 54.0153 835.497 54.7134 836.304 54.7676Z" fill="#666666"/>
<path d="M810.093 59.0737C804.418 56.3904 797.641 57.5898 793.23 62.0583C787.65 67.7109 787.582 76.9715 793.079 82.7011C795.438 85.1609 798.519 86.7089 801.862 87.1376C802.291 90.4808 803.839 93.5616 806.299 95.9213C809.136 98.6427 812.837 100.001 816.539 100C820.313 100 824.088 98.5878 826.942 95.7703C831.41 91.359 832.61 84.5818 829.926 78.907C829.615 78.2479 829.765 77.4468 830.299 76.9135L839 68.2122L847.701 76.9135C848.235 77.4475 848.385 78.2486 848.074 78.907C845.39 84.5818 846.59 91.359 851.058 95.7703C853.912 98.5878 857.687 100 861.462 100C865.163 100 868.864 98.6427 871.701 95.9213C874.161 93.5616 875.709 90.4808 876.138 87.1376C879.481 86.7089 882.561 85.1609 884.921 82.7011C886.711 80.8357 887.981 78.5126 888.594 75.985C888.785 75.1984 888.301 74.4057 887.514 74.2157C886.727 74.025 885.936 74.5079 885.746 75.2945C885.255 77.3201 884.238 79.1794 882.806 80.6725C880.672 82.898 877.801 84.1927 874.723 84.3193C873.961 84.3506 873.351 84.961 873.319 85.7231C873.193 88.8008 871.898 91.6718 869.672 93.8065C865.077 98.2147 857.651 98.1606 853.117 93.6844C849.533 90.1467 848.571 84.7115 850.723 80.1598C851.562 78.3852 851.18 76.2482 849.774 74.8413L841.073 66.14L855.14 52.0722L863.841 60.7743C865.248 62.1804 867.385 62.5618 869.16 61.7226C873.711 59.5711 879.147 60.5332 882.685 64.1175C884.338 65.7914 885.442 67.91 885.879 70.2423C886.028 71.0381 886.793 71.5622 887.588 71.4135C888.384 71.2647 888.908 70.4995 888.76 69.7037C888.215 66.7939 886.836 64.1503 884.771 62.0583C880.36 57.5898 873.582 56.3904 867.908 59.0737C867.249 59.385 866.447 59.2354 865.914 58.7014L857.212 50.0001L865.913 41.2987C866.447 40.7647 867.249 40.6159 867.907 40.9272C869.925 41.8809 872.081 42.344 874.222 42.344C878.101 42.344 881.927 40.8219 884.77 37.9426C890.35 32.29 890.418 23.0287 884.921 17.299C882.561 14.8393 879.481 13.2913 876.138 12.8625C875.709 9.5193 874.161 6.43856 871.702 4.07955C865.971 -1.41818 856.711 -1.35028 851.058 4.22985C846.59 8.64116 845.39 15.4183 848.074 21.0931C848.385 21.7523 848.235 22.5533 847.701 23.0866L839 31.788L830.299 23.0866C829.765 22.5533 829.615 21.7523 829.927 21.0931C832.61 15.4183 831.41 8.64116 826.942 4.22985C821.289 -1.35028 812.029 -1.41818 806.299 4.07879C803.839 6.43856 802.291 9.5193 801.862 12.8625C798.519 13.2913 795.438 14.8393 793.079 17.299C790.865 19.6069 789.488 22.5198 789.096 25.7211C788.999 26.5244 789.57 27.2553 790.373 27.3538C791.176 27.4514 791.908 26.88 792.005 26.0766C792.319 23.5093 793.421 21.1755 795.194 19.3276C797.328 17.1021 800.199 15.8074 803.277 15.6816C804.039 15.6503 804.65 15.0392 804.681 14.277C804.807 11.1993 806.102 8.32912 808.328 6.19366C812.923 1.7854 820.35 1.84033 824.883 6.31573C828.467 9.85423 829.429 15.2894 827.277 19.8403C826.438 21.6149 826.82 23.7527 828.227 25.1588L836.928 33.8609L822.861 47.9279L814.159 39.2266C812.753 37.8197 810.615 37.4383 808.841 38.2775C804.289 40.429 798.854 39.4677 795.316 35.8834C794.023 34.5734 793.077 33.0155 792.504 31.2524C792.254 30.4826 791.428 30.0614 790.658 30.3117C789.888 30.5619 789.467 31.3882 789.717 32.158C790.432 34.3591 791.614 36.3046 793.23 37.9418C797.642 42.4104 804.418 43.6097 810.093 40.9264C810.751 40.6152 811.553 40.7647 812.087 41.2987L820.789 50.0001L812.087 58.7014C811.553 59.2354 810.751 59.385 810.093 59.0737ZM849.773 25.1588C851.18 23.7527 851.562 21.6149 850.723 19.8403C848.571 15.2894 849.533 9.85423 853.117 6.31573C857.651 1.84033 865.077 1.7854 869.672 6.19366C871.898 8.32836 873.193 11.1993 873.319 14.277C873.351 15.0392 873.961 15.6495 874.723 15.6808C877.801 15.8074 880.672 17.1021 882.806 19.3276C887.215 23.9228 887.16 31.3493 882.684 35.8834C879.147 39.4669 873.711 40.429 869.16 38.2775C867.385 37.4383 865.247 37.8197 863.841 39.2266L828.227 74.8413C826.82 76.2474 826.438 78.3852 827.277 80.1598C829.429 84.7115 828.467 90.1467 824.883 93.6844C820.35 98.1606 812.923 98.2147 808.328 93.8065C806.102 91.6718 804.807 88.8008 804.681 85.7231C804.649 84.961 804.039 84.3506 803.277 84.3193C800.199 84.1927 797.328 82.898 795.194 80.6725C790.785 76.0773 790.839 68.6509 795.316 64.1175C797.596 61.8073 800.664 60.5866 803.776 60.5866C805.492 60.5866 807.222 60.9581 808.84 61.7226C810.615 62.5618 812.752 62.1804 814.159 60.7735L849.773 25.1588Z" fill="#666666"/>
</g>
<g clip-path="url(#clip8_1_293)">
<path d="M946.509 63.5002C947.058 64.0495 948.007 64.0747 948.581 63.5002C949.153 62.928 949.153 62.0003 948.581 61.4281L946.417 59.2636C945.845 58.6914 944.917 58.6914 944.345 59.2636C943.772 59.8358 943.772 60.7636 944.345 61.3358C944.345 61.3358 946.509 63.4995 946.509 63.5002Z" fill="#222222"/>
<path d="M970.428 39.5813C970.993 40.1474 971.936 40.1459 972.5 39.5813C973.072 39.0091 973.072 38.0813 972.5 37.5091L970.336 35.3447C969.763 34.7725 968.836 34.7725 968.264 35.3447C967.691 35.9169 967.691 36.8446 968.264 37.4168C968.264 37.4176 970.428 39.5813 970.428 39.5813Z" fill="#222222"/>
<path d="M956.304 54.7676C958.303 54.9018 960.285 54.1076 961.696 52.6962C963.146 51.2466 963.9 49.2813 963.768 47.3045C963.713 46.4965 963.015 45.8862 962.207 45.9404C961.4 45.9945 960.789 46.6934 960.844 47.5006C960.92 48.6343 960.475 49.7726 959.624 50.624C958.773 51.4755 957.634 51.9203 956.501 51.844C955.692 51.7898 954.995 52.4002 954.94 53.2081C954.886 54.0153 955.497 54.7134 956.304 54.7676Z" fill="#222222"/>
<path d="M930.093 59.0737C924.418 56.3904 917.641 57.5898 913.23 62.0583C907.65 67.7109 907.582 76.9715 913.079 82.7011C915.438 85.1609 918.519 86.7089 921.862 87.1376C922.291 90.4808 923.839 93.5616 926.299 95.9213C929.136 98.6427 932.837 100.001 936.539 100C940.313 100 944.088 98.5878 946.942 95.7703C951.41 91.359 952.61 84.5818 949.926 78.907C949.615 78.2479 949.765 77.4468 950.299 76.9135L959 68.2122L967.701 76.9135C968.235 77.4475 968.385 78.2486 968.074 78.907C965.39 84.5818 966.59 91.359 971.058 95.7703C973.912 98.5878 977.687 100 981.462 100C985.163 100 988.864 98.6427 991.701 95.9213C994.161 93.5616 995.709 90.4808 996.138 87.1376C999.481 86.7089 1002.56 85.1609 1004.92 82.7011C1006.71 80.8357 1007.98 78.5126 1008.59 75.985C1008.78 75.1984 1008.3 74.4057 1007.51 74.2157C1006.73 74.025 1005.94 74.5079 1005.75 75.2945C1005.25 77.3201 1004.24 79.1794 1002.81 80.6725C1000.67 82.898 997.801 84.1927 994.723 84.3193C993.961 84.3506 993.351 84.961 993.319 85.7231C993.193 88.8008 991.898 91.6718 989.672 93.8065C985.077 98.2147 977.651 98.1606 973.117 93.6844C969.533 90.1467 968.571 84.7115 970.723 80.1598C971.562 78.3852 971.18 76.2482 969.774 74.8413L961.073 66.14L975.14 52.0722L983.841 60.7743C985.248 62.1804 987.385 62.5618 989.16 61.7226C993.711 59.5711 999.147 60.5332 1002.69 64.1175C1004.34 65.7914 1005.44 67.91 1005.88 70.2423C1006.03 71.0381 1006.79 71.5622 1007.59 71.4135C1008.38 71.2647 1008.91 70.4995 1008.76 69.7037C1008.21 66.7939 1006.84 64.1503 1004.77 62.0583C1000.36 57.5898 993.582 56.3904 987.908 59.0737C987.249 59.385 986.447 59.2354 985.914 58.7014L977.212 50.0001L985.913 41.2987C986.447 40.7647 987.249 40.6159 987.907 40.9272C989.925 41.8809 992.081 42.344 994.222 42.344C998.101 42.344 1001.93 40.8219 1004.77 37.9426C1010.35 32.29 1010.42 23.0287 1004.92 17.299C1002.56 14.8393 999.481 13.2913 996.138 12.8625C995.709 9.5193 994.161 6.43856 991.702 4.07955C985.971 -1.41818 976.711 -1.35028 971.058 4.22985C966.59 8.64116 965.39 15.4183 968.074 21.0931C968.385 21.7523 968.235 22.5533 967.701 23.0866L959 31.788L950.299 23.0866C949.765 22.5533 949.615 21.7523 949.927 21.0931C952.61 15.4183 951.41 8.64116 946.942 4.22985C941.289 -1.35028 932.029 -1.41818 926.299 4.07879C923.839 6.43856 922.291 9.5193 921.862 12.8625C918.519 13.2913 915.438 14.8393 913.079 17.299C910.865 19.6069 909.488 22.5198 909.096 25.7211C908.999 26.5244 909.57 27.2553 910.373 27.3538C911.176 27.4514 911.908 26.88 912.005 26.0766C912.319 23.5093 913.421 21.1755 915.194 19.3276C917.328 17.1021 920.199 15.8074 923.277 15.6816C924.039 15.6503 924.65 15.0392 924.681 14.277C924.807 11.1993 926.102 8.32912 928.328 6.19366C932.923 1.7854 940.35 1.84033 944.883 6.31573C948.467 9.85423 949.429 15.2894 947.277 19.8403C946.438 21.6149 946.82 23.7527 948.227 25.1588L956.928 33.8609L942.861 47.9279L934.159 39.2266C932.753 37.8197 930.615 37.4383 928.841 38.2775C924.289 40.429 918.854 39.4677 915.316 35.8834C914.023 34.5734 913.077 33.0155 912.504 31.2524C912.254 30.4826 911.428 30.0614 910.658 30.3117C909.888 30.5619 909.467 31.3882 909.717 32.158C910.432 34.3591 911.614 36.3046 913.23 37.9418C917.642 42.4104 924.418 43.6097 930.093 40.9264C930.751 40.6152 931.553 40.7647 932.087 41.2987L940.789 50.0001L932.087 58.7014C931.553 59.2354 930.751 59.385 930.093 59.0737ZM969.773 25.1588C971.18 23.7527 971.562 21.6149 970.723 19.8403C968.571 15.2894 969.533 9.85423 973.117 6.31573C977.651 1.84033 985.077 1.7854 989.672 6.19366C991.898 8.32836 993.193 11.1993 993.319 14.277C993.351 15.0392 993.961 15.6495 994.723 15.6808C997.801 15.8074 1000.67 17.1021 1002.81 19.3276C1007.21 23.9228 1007.16 31.3493 1002.68 35.8834C999.147 39.4669 993.711 40.429 989.16 38.2775C987.385 37.4383 985.247 37.8197 983.841 39.2266L948.227 74.8413C946.82 76.2474 946.438 78.3852 947.277 80.1598C949.429 84.7115 948.467 90.1467 944.883 93.6844C940.35 98.1606 932.923 98.2147 928.328 93.8065C926.102 91.6718 924.807 88.8008 924.681 85.7231C924.649 84.961 924.039 84.3506 923.277 84.3193C920.199 84.1927 917.328 82.898 915.194 80.6725C910.785 76.0773 910.839 68.6509 915.316 64.1175C917.596 61.8073 920.664 60.5866 923.776 60.5866C925.492 60.5866 927.222 60.9581 928.84 61.7226C930.615 62.5618 932.752 62.1804 934.159 60.7735L969.773 25.1588Z" fill="#222222"/>
</g>
<g clip-path="url(#clip9_1_293)">
<path d="M1066.51 63.5002C1067.06 64.0495 1068.01 64.0747 1068.58 63.5002C1069.15 62.928 1069.15 62.0003 1068.58 61.4281L1066.42 59.2636C1065.84 58.6914 1064.92 58.6914 1064.34 59.2636C1063.77 59.8358 1063.77 60.7636 1064.34 61.3358C1064.34 61.3358 1066.51 63.4995 1066.51 63.5002Z" fill="#666666"/>
<path d="M1090.43 39.5813C1090.99 40.1474 1091.94 40.1459 1092.5 39.5813C1093.07 39.0091 1093.07 38.0813 1092.5 37.5091L1090.34 35.3447C1089.76 34.7725 1088.84 34.7725 1088.26 35.3447C1087.69 35.9169 1087.69 36.8446 1088.26 37.4168C1088.26 37.4176 1090.43 39.5813 1090.43 39.5813Z" fill="#666666"/>
<path d="M1076.3 54.7676C1078.3 54.9018 1080.28 54.1076 1081.7 52.6962C1083.15 51.2466 1083.9 49.2813 1083.77 47.3045C1083.71 46.4965 1083.01 45.8862 1082.21 45.9404C1081.4 45.9945 1080.79 46.6934 1080.84 47.5006C1080.92 48.6343 1080.48 49.7726 1079.62 50.624C1078.77 51.4755 1077.63 51.9203 1076.5 51.844C1075.69 51.7898 1074.99 52.4002 1074.94 53.2081C1074.89 54.0153 1075.5 54.7134 1076.3 54.7676Z" fill="#666666"/>
<path d="M1050.09 59.0737C1044.42 56.3904 1037.64 57.5898 1033.23 62.0583C1027.65 67.7109 1027.58 76.9715 1033.08 82.7011C1035.44 85.1609 1038.52 86.7089 1041.86 87.1376C1042.29 90.4808 1043.84 93.5616 1046.3 95.9213C1049.14 98.6427 1052.84 100.001 1056.54 100C1060.31 100 1064.09 98.5878 1066.94 95.7703C1071.41 91.359 1072.61 84.5818 1069.93 78.907C1069.62 78.2479 1069.76 77.4468 1070.3 76.9135L1079 68.2122L1087.7 76.9135C1088.24 77.4475 1088.38 78.2486 1088.07 78.907C1085.39 84.5818 1086.59 91.359 1091.06 95.7703C1093.91 98.5878 1097.69 100 1101.46 100C1105.16 100 1108.86 98.6427 1111.7 95.9213C1114.16 93.5616 1115.71 90.4808 1116.14 87.1376C1119.48 86.7089 1122.56 85.1609 1124.92 82.7011C1126.71 80.8357 1127.98 78.5126 1128.59 75.985C1128.78 75.1984 1128.3 74.4057 1127.51 74.2157C1126.73 74.025 1125.94 74.5079 1125.75 75.2945C1125.25 77.3201 1124.24 79.1794 1122.81 80.6725C1120.67 82.898 1117.8 84.1927 1114.72 84.3193C1113.96 84.3506 1113.35 84.961 1113.32 85.7231C1113.19 88.8008 1111.9 91.6718 1109.67 93.8065C1105.08 98.2147 1097.65 98.1606 1093.12 93.6844C1089.53 90.1467 1088.57 84.7115 1090.72 80.1598C1091.56 78.3852 1091.18 76.2482 1089.77 74.8413L1081.07 66.14L1095.14 52.0722L1103.84 60.7743C1105.25 62.1804 1107.39 62.5618 1109.16 61.7226C1113.71 59.5711 1119.15 60.5332 1122.69 64.1175C1124.34 65.7914 1125.44 67.91 1125.88 70.2423C1126.03 71.0381 1126.79 71.5622 1127.59 71.4135C1128.38 71.2647 1128.91 70.4995 1128.76 69.7037C1128.21 66.7939 1126.84 64.1503 1124.77 62.0583C1120.36 57.5898 1113.58 56.3904 1107.91 59.0737C1107.25 59.385 1106.45 59.2354 1105.91 58.7014L1097.21 50.0001L1105.91 41.2987C1106.45 40.7647 1107.25 40.6159 1107.91 40.9272C1109.92 41.8809 1112.08 42.344 1114.22 42.344C1118.1 42.344 1121.93 40.8219 1124.77 37.9426C1130.35 32.29 1130.42 23.0287 1124.92 17.299C1122.56 14.8393 1119.48 13.2913 1116.14 12.8625C1115.71 9.5193 1114.16 6.43856 1111.7 4.07955C1105.97 -1.41818 1096.71 -1.35028 1091.06 4.22985C1086.59 8.64116 1085.39 15.4183 1088.07 21.0931C1088.38 21.7523 1088.24 22.5533 1087.7 23.0866L1079 31.788L1070.3 23.0866C1069.76 22.5533 1069.62 21.7523 1069.93 21.0931C1072.61 15.4183 1071.41 8.64116 1066.94 4.22985C1061.29 -1.35028 1052.03 -1.41818 1046.3 4.07879C1043.84 6.43856 1042.29 9.5193 1041.86 12.8625C1038.52 13.2913 1035.44 14.8393 1033.08 17.299C1030.86 19.6069 1029.49 22.5198 1029.1 25.7211C1029 26.5244 1029.57 27.2553 1030.37 27.3538C1031.18 27.4514 1031.91 26.88 1032.01 26.0766C1032.32 23.5093 1033.42 21.1755 1035.19 19.3276C1037.33 17.1021 1040.2 15.8074 1043.28 15.6816C1044.04 15.6503 1044.65 15.0392 1044.68 14.277C1044.81 11.1993 1046.1 8.32912 1048.33 6.19366C1052.92 1.7854 1060.35 1.84033 1064.88 6.31573C1068.47 9.85423 1069.43 15.2894 1067.28 19.8403C1066.44 21.6149 1066.82 23.7527 1068.23 25.1588L1076.93 33.8609L1062.86 47.9279L1054.16 39.2266C1052.75 37.8197 1050.61 37.4383 1048.84 38.2775C1044.29 40.429 1038.85 39.4677 1035.32 35.8834C1034.02 34.5734 1033.08 33.0155 1032.5 31.2524C1032.25 30.4826 1031.43 30.0614 1030.66 30.3117C1029.89 30.5619 1029.47 31.3882 1029.72 32.158C1030.43 34.3591 1031.61 36.3046 1033.23 37.9418C1037.64 42.4104 1044.42 43.6097 1050.09 40.9264C1050.75 40.6152 1051.55 40.7647 1052.09 41.2987L1060.79 50.0001L1052.09 58.7014C1051.55 59.2354 1050.75 59.385 1050.09 59.0737ZM1089.77 25.1588C1091.18 23.7527 1091.56 21.6149 1090.72 19.8403C1088.57 15.2894 1089.53 9.85423 1093.12 6.31573C1097.65 1.84033 1105.08 1.7854 1109.67 6.19366C1111.9 8.32836 1113.19 11.1993 1113.32 14.277C1113.35 15.0392 1113.96 15.6495 1114.72 15.6808C1117.8 15.8074 1120.67 17.1021 1122.81 19.3276C1127.21 23.9228 1127.16 31.3493 1122.68 35.8834C1119.15 39.4669 1113.71 40.429 1109.16 38.2775C1107.39 37.4383 1105.25 37.8197 1103.84 39.2266L1068.23 74.8413C1066.82 76.2474 1066.44 78.3852 1067.28 80.1598C1069.43 84.7115 1068.47 90.1467 1064.88 93.6844C1060.35 98.1606 1052.92 98.2147 1048.33 93.8065C1046.1 91.6718 1044.81 88.8008 1044.68 85.7231C1044.65 84.961 1044.04 84.3506 1043.28 84.3193C1040.2 84.1927 1037.33 82.898 1035.19 80.6725C1030.79 76.0773 1030.84 68.6509 1035.32 64.1175C1037.6 61.8073 1040.66 60.5866 1043.78 60.5866C1045.49 60.5866 1047.22 60.9581 1048.84 61.7226C1050.61 62.5618 1052.75 62.1804 1054.16 60.7735L1089.77 25.1588Z" fill="#666666"/>
</g>
<g clip-path="url(#clip10_1_293)">
<path d="M1186.51 63.5002C1187.06 64.0495 1188.01 64.0747 1188.58 63.5002C1189.15 62.928 1189.15 62.0003 1188.58 61.4281L1186.42 59.2636C1185.84 58.6914 1184.92 58.6914 1184.34 59.2636C1183.77 59.8358 1183.77 60.7636 1184.34 61.3358C1184.34 61.3358 1186.51 63.4995 1186.51 63.5002Z" fill="#222222"/>
<path d="M1210.43 39.5813C1210.99 40.1474 1211.94 40.1459 1212.5 39.5813C1213.07 39.0091 1213.07 38.0813 1212.5 37.5091L1210.34 35.3447C1209.76 34.7725 1208.84 34.7725 1208.26 35.3447C1207.69 35.9169 1207.69 36.8446 1208.26 37.4168C1208.26 37.4176 1210.43 39.5813 1210.43 39.5813Z" fill="#222222"/>
<path d="M1196.3 54.7676C1198.3 54.9018 1200.28 54.1076 1201.7 52.6962C1203.15 51.2466 1203.9 49.2813 1203.77 47.3045C1203.71 46.4965 1203.01 45.8862 1202.21 45.9404C1201.4 45.9945 1200.79 46.6934 1200.84 47.5006C1200.92 48.6343 1200.48 49.7726 1199.62 50.624C1198.77 51.4755 1197.63 51.9203 1196.5 51.844C1195.69 51.7898 1194.99 52.4002 1194.94 53.2081C1194.89 54.0153 1195.5 54.7134 1196.3 54.7676Z" fill="#222222"/>
<path d="M1170.09 59.0737C1164.42 56.3904 1157.64 57.5898 1153.23 62.0583C1147.65 67.7109 1147.58 76.9715 1153.08 82.7011C1155.44 85.1609 1158.52 86.7089 1161.86 87.1376C1162.29 90.4808 1163.84 93.5616 1166.3 95.9213C1169.14 98.6427 1172.84 100.001 1176.54 100C1180.31 100 1184.09 98.5878 1186.94 95.7703C1191.41 91.359 1192.61 84.5818 1189.93 78.907C1189.62 78.2479 1189.76 77.4468 1190.3 76.9135L1199 68.2122L1207.7 76.9135C1208.24 77.4475 1208.38 78.2486 1208.07 78.907C1205.39 84.5818 1206.59 91.359 1211.06 95.7703C1213.91 98.5878 1217.69 100 1221.46 100C1225.16 100 1228.86 98.6427 1231.7 95.9213C1234.16 93.5616 1235.71 90.4808 1236.14 87.1376C1239.48 86.7089 1242.56 85.1609 1244.92 82.7011C1246.71 80.8357 1247.98 78.5126 1248.59 75.985C1248.78 75.1984 1248.3 74.4057 1247.51 74.2157C1246.73 74.025 1245.94 74.5079 1245.75 75.2945C1245.25 77.3201 1244.24 79.1794 1242.81 80.6725C1240.67 82.898 1237.8 84.1927 1234.72 84.3193C1233.96 84.3506 1233.35 84.961 1233.32 85.7231C1233.19 88.8008 1231.9 91.6718 1229.67 93.8065C1225.08 98.2147 1217.65 98.1606 1213.12 93.6844C1209.53 90.1467 1208.57 84.7115 1210.72 80.1598C1211.56 78.3852 1211.18 76.2482 1209.77 74.8413L1201.07 66.14L1215.14 52.0722L1223.84 60.7743C1225.25 62.1804 1227.39 62.5618 1229.16 61.7226C1233.71 59.5711 1239.15 60.5332 1242.69 64.1175C1244.34 65.7914 1245.44 67.91 1245.88 70.2423C1246.03 71.0381 1246.79 71.5622 1247.59 71.4135C1248.38 71.2647 1248.91 70.4995 1248.76 69.7037C1248.21 66.7939 1246.84 64.1503 1244.77 62.0583C1240.36 57.5898 1233.58 56.3904 1227.91 59.0737C1227.25 59.385 1226.45 59.2354 1225.91 58.7014L1217.21 50.0001L1225.91 41.2987C1226.45 40.7647 1227.25 40.6159 1227.91 40.9272C1229.92 41.8809 1232.08 42.344 1234.22 42.344C1238.1 42.344 1241.93 40.8219 1244.77 37.9426C1250.35 32.29 1250.42 23.0287 1244.92 17.299C1242.56 14.8393 1239.48 13.2913 1236.14 12.8625C1235.71 9.5193 1234.16 6.43856 1231.7 4.07955C1225.97 -1.41818 1216.71 -1.35028 1211.06 4.22985C1206.59 8.64116 1205.39 15.4183 1208.07 21.0931C1208.38 21.7523 1208.24 22.5533 1207.7 23.0866L1199 31.788L1190.3 23.0866C1189.76 22.5533 1189.62 21.7523 1189.93 21.0931C1192.61 15.4183 1191.41 8.64116 1186.94 4.22985C1181.29 -1.35028 1172.03 -1.41818 1166.3 4.07879C1163.84 6.43856 1162.29 9.5193 1161.86 12.8625C1158.52 13.2913 1155.44 14.8393 1153.08 17.299C1150.86 19.6069 1149.49 22.5198 1149.1 25.7211C1149 26.5244 1149.57 27.2553 1150.37 27.3538C1151.18 27.4514 1151.91 26.88 1152.01 26.0766C1152.32 23.5093 1153.42 21.1755 1155.19 19.3276C1157.33 17.1021 1160.2 15.8074 1163.28 15.6816C1164.04 15.6503 1164.65 15.0392 1164.68 14.277C1164.81 11.1993 1166.1 8.32912 1168.33 6.19366C1172.92 1.7854 1180.35 1.84033 1184.88 6.31573C1188.47 9.85423 1189.43 15.2894 1187.28 19.8403C1186.44 21.6149 1186.82 23.7527 1188.23 25.1588L1196.93 33.8609L1182.86 47.9279L1174.16 39.2266C1172.75 37.8197 1170.61 37.4383 1168.84 38.2775C1164.29 40.429 1158.85 39.4677 1155.32 35.8834C1154.02 34.5734 1153.08 33.0155 1152.5 31.2524C1152.25 30.4826 1151.43 30.0614 1150.66 30.3117C1149.89 30.5619 1149.47 31.3882 1149.72 32.158C1150.43 34.3591 1151.61 36.3046 1153.23 37.9418C1157.64 42.4104 1164.42 43.6097 1170.09 40.9264C1170.75 40.6152 1171.55 40.7647 1172.09 41.2987L1180.79 50.0001L1172.09 58.7014C1171.55 59.2354 1170.75 59.385 1170.09 59.0737ZM1209.77 25.1588C1211.18 23.7527 1211.56 21.6149 1210.72 19.8403C1208.57 15.2894 1209.53 9.85423 1213.12 6.31573C1217.65 1.84033 1225.08 1.7854 1229.67 6.19366C1231.9 8.32836 1233.19 11.1993 1233.32 14.277C1233.35 15.0392 1233.96 15.6495 1234.72 15.6808C1237.8 15.8074 1240.67 17.1021 1242.81 19.3276C1247.21 23.9228 1247.16 31.3493 1242.68 35.8834C1239.15 39.4669 1233.71 40.429 1229.16 38.2775C1227.39 37.4383 1225.25 37.8197 1223.84 39.2266L1188.23 74.8413C1186.82 76.2474 1186.44 78.3852 1187.28 80.1598C1189.43 84.7115 1188.47 90.1467 1184.88 93.6844C1180.35 98.1606 1172.92 98.2147 1168.33 93.8065C1166.1 91.6718 1164.81 88.8008 1164.68 85.7231C1164.65 84.961 1164.04 84.3506 1163.28 84.3193C1160.2 84.1927 1157.33 82.898 1155.19 80.6725C1150.79 76.0773 1150.84 68.6509 1155.32 64.1175C1157.6 61.8073 1160.66 60.5866 1163.78 60.5866C1165.49 60.5866 1167.22 60.9581 1168.84 61.7226C1170.61 62.5618 1172.75 62.1804 1174.16 60.7735L1209.77 25.1588Z" fill="#222222"/>
</g>
<g clip-path="url(#clip11_1_293)">
<path d="M1306.51 63.5002C1307.06 64.0495 1308.01 64.0747 1308.58 63.5002C1309.15 62.928 1309.15 62.0003 1308.58 61.4281L1306.42 59.2636C1305.84 58.6914 1304.92 58.6914 1304.34 59.2636C1303.77 59.8358 1303.77 60.7636 1304.34 61.3358C1304.34 61.3358 1306.51 63.4995 1306.51 63.5002Z" fill="#666666"/>
<path d="M1330.43 39.5813C1330.99 40.1474 1331.94 40.1459 1332.5 39.5813C1333.07 39.0091 1333.07 38.0813 1332.5 37.5091L1330.34 35.3447C1329.76 34.7725 1328.84 34.7725 1328.26 35.3447C1327.69 35.9169 1327.69 36.8446 1328.26 37.4168C1328.26 37.4176 1330.43 39.5813 1330.43 39.5813Z" fill="#666666"/>
<path d="M1316.3 54.7676C1318.3 54.9018 1320.28 54.1076 1321.7 52.6962C1323.15 51.2466 1323.9 49.2813 1323.77 47.3045C1323.71 46.4965 1323.01 45.8862 1322.21 45.9404C1321.4 45.9945 1320.79 46.6934 1320.84 47.5006C1320.92 48.6343 1320.48 49.7726 1319.62 50.624C1318.77 51.4755 1317.63 51.9203 1316.5 51.844C1315.69 51.7898 1314.99 52.4002 1314.94 53.2081C1314.89 54.0153 1315.5 54.7134 1316.3 54.7676Z" fill="#666666"/>
<path d="M1290.09 59.0737C1284.42 56.3904 1277.64 57.5898 1273.23 62.0583C1267.65 67.7109 1267.58 76.9715 1273.08 82.7011C1275.44 85.1609 1278.52 86.7089 1281.86 87.1376C1282.29 90.4808 1283.84 93.5616 1286.3 95.9213C1289.14 98.6427 1292.84 100.001 1296.54 100C1300.31 100 1304.09 98.5878 1306.94 95.7703C1311.41 91.359 1312.61 84.5818 1309.93 78.907C1309.62 78.2479 1309.76 77.4468 1310.3 76.9135L1319 68.2122L1327.7 76.9135C1328.24 77.4475 1328.38 78.2486 1328.07 78.907C1325.39 84.5818 1326.59 91.359 1331.06 95.7703C1333.91 98.5878 1337.69 100 1341.46 100C1345.16 100 1348.86 98.6427 1351.7 95.9213C1354.16 93.5616 1355.71 90.4808 1356.14 87.1376C1359.48 86.7089 1362.56 85.1609 1364.92 82.7011C1366.71 80.8357 1367.98 78.5126 1368.59 75.985C1368.78 75.1984 1368.3 74.4057 1367.51 74.2157C1366.73 74.025 1365.94 74.5079 1365.75 75.2945C1365.25 77.3201 1364.24 79.1794 1362.81 80.6725C1360.67 82.898 1357.8 84.1927 1354.72 84.3193C1353.96 84.3506 1353.35 84.961 1353.32 85.7231C1353.19 88.8008 1351.9 91.6718 1349.67 93.8065C1345.08 98.2147 1337.65 98.1606 1333.12 93.6844C1329.53 90.1467 1328.57 84.7115 1330.72 80.1598C1331.56 78.3852 1331.18 76.2482 1329.77 74.8413L1321.07 66.14L1335.14 52.0722L1343.84 60.7743C1345.25 62.1804 1347.39 62.5618 1349.16 61.7226C1353.71 59.5711 1359.15 60.5332 1362.69 64.1175C1364.34 65.7914 1365.44 67.91 1365.88 70.2423C1366.03 71.0381 1366.79 71.5622 1367.59 71.4135C1368.38 71.2647 1368.91 70.4995 1368.76 69.7037C1368.21 66.7939 1366.84 64.1503 1364.77 62.0583C1360.36 57.5898 1353.58 56.3904 1347.91 59.0737C1347.25 59.385 1346.45 59.2354 1345.91 58.7014L1337.21 50.0001L1345.91 41.2987C1346.45 40.7647 1347.25 40.6159 1347.91 40.9272C1349.92 41.8809 1352.08 42.344 1354.22 42.344C1358.1 42.344 1361.93 40.8219 1364.77 37.9426C1370.35 32.29 1370.42 23.0287 1364.92 17.299C1362.56 14.8393 1359.48 13.2913 1356.14 12.8625C1355.71 9.5193 1354.16 6.43856 1351.7 4.07955C1345.97 -1.41818 1336.71 -1.35028 1331.06 4.22985C1326.59 8.64116 1325.39 15.4183 1328.07 21.0931C1328.38 21.7523 1328.24 22.5533 1327.7 23.0866L1319 31.788L1310.3 23.0866C1309.76 22.5533 1309.62 21.7523 1309.93 21.0931C1312.61 15.4183 1311.41 8.64116 1306.94 4.22985C1301.29 -1.35028 1292.03 -1.41818 1286.3 4.07879C1283.84 6.43856 1282.29 9.5193 1281.86 12.8625C1278.52 13.2913 1275.44 14.8393 1273.08 17.299C1270.86 19.6069 1269.49 22.5198 1269.1 25.7211C1269 26.5244 1269.57 27.2553 1270.37 27.3538C1271.18 27.4514 1271.91 26.88 1272.01 26.0766C1272.32 23.5093 1273.42 21.1755 1275.19 19.3276C1277.33 17.1021 1280.2 15.8074 1283.28 15.6816C1284.04 15.6503 1284.65 15.0392 1284.68 14.277C1284.81 11.1993 1286.1 8.32912 1288.33 6.19366C1292.92 1.7854 1300.35 1.84033 1304.88 6.31573C1308.47 9.85423 1309.43 15.2894 1307.28 19.8403C1306.44 21.6149 1306.82 23.7527 1308.23 25.1588L1316.93 33.8609L1302.86 47.9279L1294.16 39.2266C1292.75 37.8197 1290.61 37.4383 1288.84 38.2775C1284.29 40.429 1278.85 39.4677 1275.32 35.8834C1274.02 34.5734 1273.08 33.0155 1272.5 31.2524C1272.25 30.4826 1271.43 30.0614 1270.66 30.3117C1269.89 30.5619 1269.47 31.3882 1269.72 32.158C1270.43 34.3591 1271.61 36.3046 1273.23 37.9418C1277.64 42.4104 1284.42 43.6097 1290.09 40.9264C1290.75 40.6152 1291.55 40.7647 1292.09 41.2987L1300.79 50.0001L1292.09 58.7014C1291.55 59.2354 1290.75 59.385 1290.09 59.0737ZM1329.77 25.1588C1331.18 23.7527 1331.56 21.6149 1330.72 19.8403C1328.57 15.2894 1329.53 9.85423 1333.12 6.31573C1337.65 1.84033 1345.08 1.7854 1349.67 6.19366C1351.9 8.32836 1353.19 11.1993 1353.32 14.277C1353.35 15.0392 1353.96 15.6495 1354.72 15.6808C1357.8 15.8074 1360.67 17.1021 1362.81 19.3276C1367.21 23.9228 1367.16 31.3493 1362.68 35.8834C1359.15 39.4669 1353.71 40.429 1349.16 38.2775C1347.39 37.4383 1345.25 37.8197 1343.84 39.2266L1308.23 74.8413C1306.82 76.2474 1306.44 78.3852 1307.28 80.1598C1309.43 84.7115 1308.47 90.1467 1304.88 93.6844C1300.35 98.1606 1292.92 98.2147 1288.33 93.8065C1286.1 91.6718 1284.81 88.8008 1284.68 85.7231C1284.65 84.961 1284.04 84.3506 1283.28 84.3193C1280.2 84.1927 1277.33 82.898 1275.19 80.6725C1270.79 76.0773 1270.84 68.6509 1275.32 64.1175C1277.6 61.8073 1280.66 60.5866 1283.78 60.5866C1285.49 60.5866 1287.22 60.9581 1288.84 61.7226C1290.61 62.5618 1292.75 62.1804 1294.16 60.7735L1329.77 25.1588Z" fill="#666666"/>
</g>
<g clip-path="url(#clip12_1_293)">
<path d="M1426.51 63.5002C1427.06 64.0495 1428.01 64.0747 1428.58 63.5002C1429.15 62.928 1429.15 62.0003 1428.58 61.4281L1426.42 59.2636C1425.84 58.6914 1424.92 58.6914 1424.34 59.2636C1423.77 59.8358 1423.77 60.7636 1424.34 61.3358C1424.34 61.3358 1426.51 63.4995 1426.51 63.5002Z" fill="#222222"/>
<path d="M1450.43 39.5813C1450.99 40.1474 1451.94 40.1459 1452.5 39.5813C1453.07 39.0091 1453.07 38.0813 1452.5 37.5091L1450.34 35.3447C1449.76 34.7725 1448.84 34.7725 1448.26 35.3447C1447.69 35.9169 1447.69 36.8446 1448.26 37.4168C1448.26 37.4176 1450.43 39.5813 1450.43 39.5813Z" fill="#222222"/>
<path d="M1436.3 54.7676C1438.3 54.9018 1440.28 54.1076 1441.7 52.6962C1443.15 51.2466 1443.9 49.2813 1443.77 47.3045C1443.71 46.4965 1443.01 45.8862 1442.21 45.9404C1441.4 45.9945 1440.79 46.6934 1440.84 47.5006C1440.92 48.6343 1440.48 49.7726 1439.62 50.624C1438.77 51.4755 1437.63 51.9203 1436.5 51.844C1435.69 51.7898 1434.99 52.4002 1434.94 53.2081C1434.89 54.0153 1435.5 54.7134 1436.3 54.7676Z" fill="#222222"/>
<path d="M1410.09 59.0737C1404.42 56.3904 1397.64 57.5898 1393.23 62.0583C1387.65 67.7109 1387.58 76.9715 1393.08 82.7011C1395.44 85.1609 1398.52 86.7089 1401.86 87.1376C1402.29 90.4808 1403.84 93.5616 1406.3 95.9213C1409.14 98.6427 1412.84 100.001 1416.54 100C1420.31 100 1424.09 98.5878 1426.94 95.7703C1431.41 91.359 1432.61 84.5818 1429.93 78.907C1429.62 78.2479 1429.76 77.4468 1430.3 76.9135L1439 68.2122L1447.7 76.9135C1448.24 77.4475 1448.38 78.2486 1448.07 78.907C1445.39 84.5818 1446.59 91.359 1451.06 95.7703C1453.91 98.5878 1457.69 100 1461.46 100C1465.16 100 1468.86 98.6427 1471.7 95.9213C1474.16 93.5616 1475.71 90.4808 1476.14 87.1376C1479.48 86.7089 1482.56 85.1609 1484.92 82.7011C1486.71 80.8357 1487.98 78.5126 1488.59 75.985C1488.78 75.1984 1488.3 74.4057 1487.51 74.2157C1486.73 74.025 1485.94 74.5079 1485.75 75.2945C1485.25 77.3201 1484.24 79.1794 1482.81 80.6725C1480.67 82.898 1477.8 84.1927 1474.72 84.3193C1473.96 84.3506 1473.35 84.961 1473.32 85.7231C1473.19 88.8008 1471.9 91.6718 1469.67 93.8065C1465.08 98.2147 1457.65 98.1606 1453.12 93.6844C1449.53 90.1467 1448.57 84.7115 1450.72 80.1598C1451.56 78.3852 1451.18 76.2482 1449.77 74.8413L1441.07 66.14L1455.14 52.0722L1463.84 60.7743C1465.25 62.1804 1467.39 62.5618 1469.16 61.7226C1473.71 59.5711 1479.15 60.5332 1482.69 64.1175C1484.34 65.7914 1485.44 67.91 1485.88 70.2423C1486.03 71.0381 1486.79 71.5622 1487.59 71.4135C1488.38 71.2647 1488.91 70.4995 1488.76 69.7037C1488.21 66.7939 1486.84 64.1503 1484.77 62.0583C1480.36 57.5898 1473.58 56.3904 1467.91 59.0737C1467.25 59.385 1466.45 59.2354 1465.91 58.7014L1457.21 50.0001L1465.91 41.2987C1466.45 40.7647 1467.25 40.6159 1467.91 40.9272C1469.92 41.8809 1472.08 42.344 1474.22 42.344C1478.1 42.344 1481.93 40.8219 1484.77 37.9426C1490.35 32.29 1490.42 23.0287 1484.92 17.299C1482.56 14.8393 1479.48 13.2913 1476.14 12.8625C1475.71 9.5193 1474.16 6.43856 1471.7 4.07955C1465.97 -1.41818 1456.71 -1.35028 1451.06 4.22985C1446.59 8.64116 1445.39 15.4183 1448.07 21.0931C1448.38 21.7523 1448.24 22.5533 1447.7 23.0866L1439 31.788L1430.3 23.0866C1429.76 22.5533 1429.62 21.7523 1429.93 21.0931C1432.61 15.4183 1431.41 8.64116 1426.94 4.22985C1421.29 -1.35028 1412.03 -1.41818 1406.3 4.07879C1403.84 6.43856 1402.29 9.5193 1401.86 12.8625C1398.52 13.2913 1395.44 14.8393 1393.08 17.299C1390.86 19.6069 1389.49 22.5198 1389.1 25.7211C1389 26.5244 1389.57 27.2553 1390.37 27.3538C1391.18 27.4514 1391.91 26.88 1392.01 26.0766C1392.32 23.5093 1393.42 21.1755 1395.19 19.3276C1397.33 17.1021 1400.2 15.8074 1403.28 15.6816C1404.04 15.6503 1404.65 15.0392 1404.68 14.277C1404.81 11.1993 1406.1 8.32912 1408.33 6.19366C1412.92 1.7854 1420.35 1.84033 1424.88 6.31573C1428.47 9.85423 1429.43 15.2894 1427.28 19.8403C1426.44 21.6149 1426.82 23.7527 1428.23 25.1588L1436.93 33.8609L1422.86 47.9279L1414.16 39.2266C1412.75 37.8197 1410.61 37.4383 1408.84 38.2775C1404.29 40.429 1398.85 39.4677 1395.32 35.8834C1394.02 34.5734 1393.08 33.0155 1392.5 31.2524C1392.25 30.4826 1391.43 30.0614 1390.66 30.3117C1389.89 30.5619 1389.47 31.3882 1389.72 32.158C1390.43 34.3591 1391.61 36.3046 1393.23 37.9418C1397.64 42.4104 1404.42 43.6097 1410.09 40.9264C1410.75 40.6152 1411.55 40.7647 1412.09 41.2987L1420.79 50.0001L1412.09 58.7014C1411.55 59.2354 1410.75 59.385 1410.09 59.0737ZM1449.77 25.1588C1451.18 23.7527 1451.56 21.6149 1450.72 19.8403C1448.57 15.2894 1449.53 9.85423 1453.12 6.31573C1457.65 1.84033 1465.08 1.7854 1469.67 6.19366C1471.9 8.32836 1473.19 11.1993 1473.32 14.277C1473.35 15.0392 1473.96 15.6495 1474.72 15.6808C1477.8 15.8074 1480.67 17.1021 1482.81 19.3276C1487.21 23.9228 1487.16 31.3493 1482.68 35.8834C1479.15 39.4669 1473.71 40.429 1469.16 38.2775C1467.39 37.4383 1465.25 37.8197 1463.84 39.2266L1428.23 74.8413C1426.82 76.2474 1426.44 78.3852 1427.28 80.1598C1429.43 84.7115 1428.47 90.1467 1424.88 93.6844C1420.35 98.1606 1412.92 98.2147 1408.33 93.8065C1406.1 91.6718 1404.81 88.8008 1404.68 85.7231C1404.65 84.961 1404.04 84.3506 1403.28 84.3193C1400.2 84.1927 1397.33 82.898 1395.19 80.6725C1390.79 76.0773 1390.84 68.6509 1395.32 64.1175C1397.6 61.8073 1400.66 60.5866 1403.78 60.5866C1405.49 60.5866 1407.22 60.9581 1408.84 61.7226C1410.61 62.5618 1412.75 62.1804 1414.16 60.7735L1449.77 25.1588Z" fill="#222222"/>
</g>
<g clip-path="url(#clip13_1_293)">
<path d="M1546.51 63.5002C1547.06 64.0495 1548.01 64.0747 1548.58 63.5002C1549.15 62.928 1549.15 62.0003 1548.58 61.4281L1546.42 59.2636C1545.84 58.6914 1544.92 58.6914 1544.34 59.2636C1543.77 59.8358 1543.77 60.7636 1544.34 61.3358C1544.34 61.3358 1546.51 63.4995 1546.51 63.5002Z" fill="#666666"/>
<path d="M1570.43 39.5813C1570.99 40.1474 1571.94 40.1459 1572.5 39.5813C1573.07 39.0091 1573.07 38.0813 1572.5 37.5091L1570.34 35.3447C1569.76 34.7725 1568.84 34.7725 1568.26 35.3447C1567.69 35.9169 1567.69 36.8446 1568.26 37.4168C1568.26 37.4176 1570.43 39.5813 1570.43 39.5813Z" fill="#666666"/>
<path d="M1556.3 54.7676C1558.3 54.9018 1560.28 54.1076 1561.7 52.6962C1563.15 51.2466 1563.9 49.2813 1563.77 47.3045C1563.71 46.4965 1563.01 45.8862 1562.21 45.9404C1561.4 45.9945 1560.79 46.6934 1560.84 47.5006C1560.92 48.6343 1560.48 49.7726 1559.62 50.624C1558.77 51.4755 1557.63 51.9203 1556.5 51.844C1555.69 51.7898 1554.99 52.4002 1554.94 53.2081C1554.89 54.0153 1555.5 54.7134 1556.3 54.7676Z" fill="#666666"/>
<path d="M1530.09 59.0737C1524.42 56.3904 1517.64 57.5898 1513.23 62.0583C1507.65 67.7109 1507.58 76.9715 1513.08 82.7011C1515.44 85.1609 1518.52 86.7089 1521.86 87.1376C1522.29 90.4808 1523.84 93.5616 1526.3 95.9213C1529.14 98.6427 1532.84 100.001 1536.54 100C1540.31 100 1544.09 98.5878 1546.94 95.7703C1551.41 91.359 1552.61 84.5818 1549.93 78.907C1549.62 78.2479 1549.76 77.4468 1550.3 76.9135L1559 68.2122L1567.7 76.9135C1568.24 77.4475 1568.38 78.2486 1568.07 78.907C1565.39 84.5818 1566.59 91.359 1571.06 95.7703C1573.91 98.5878 1577.69 100 1581.46 100C1585.16 100 1588.86 98.6427 1591.7 95.9213C1594.16 93.5616 1595.71 90.4808 1596.14 87.1376C1599.48 86.7089 1602.56 85.1609 1604.92 82.7011C1606.71 80.8357 1607.98 78.5126 1608.59 75.985C1608.78 75.1984 1608.3 74.4057 1607.51 74.2157C1606.73 74.025 1605.94 74.5079 1605.75 75.2945C1605.25 77.3201 1604.24 79.1794 1602.81 80.6725C1600.67 82.898 1597.8 84.1927 1594.72 84.3193C1593.96 84.3506 1593.35 84.961 1593.32 85.7231C1593.19 88.8008 1591.9 91.6718 1589.67 93.8065C1585.08 98.2147 1577.65 98.1606 1573.12 93.6844C1569.53 90.1467 1568.57 84.7115 1570.72 80.1598C1571.56 78.3852 1571.18 76.2482 1569.77 74.8413L1561.07 66.14L1575.14 52.0722L1583.84 60.7743C1585.25 62.1804 1587.39 62.5618 1589.16 61.7226C1593.71 59.5711 1599.15 60.5332 1602.69 64.1175C1604.34 65.7914 1605.44 67.91 1605.88 70.2423C1606.03 71.0381 1606.79 71.5622 1607.59 71.4135C1608.38 71.2647 1608.91 70.4995 1608.76 69.7037C1608.21 66.7939 1606.84 64.1503 1604.77 62.0583C1600.36 57.5898 1593.58 56.3904 1587.91 59.0737C1587.25 59.385 1586.45 59.2354 1585.91 58.7014L1577.21 50.0001L1585.91 41.2987C1586.45 40.7647 1587.25 40.6159 1587.91 40.9272C1589.92 41.8809 1592.08 42.344 1594.22 42.344C1598.1 42.344 1601.93 40.8219 1604.77 37.9426C1610.35 32.29 1610.42 23.0287 1604.92 17.299C1602.56 14.8393 1599.48 13.2913 1596.14 12.8625C1595.71 9.5193 1594.16 6.43856 1591.7 4.07955C1585.97 -1.41818 1576.71 -1.35028 1571.06 4.22985C1566.59 8.64116 1565.39 15.4183 1568.07 21.0931C1568.38 21.7523 1568.24 22.5533 1567.7 23.0866L1559 31.788L1550.3 23.0866C1549.76 22.5533 1549.62 21.7523 1549.93 21.0931C1552.61 15.4183 1551.41 8.64116 1546.94 4.22985C1541.29 -1.35028 1532.03 -1.41818 1526.3 4.07879C1523.84 6.43856 1522.29 9.5193 1521.86 12.8625C1518.52 13.2913 1515.44 14.8393 1513.08 17.299C1510.86 19.6069 1509.49 22.5198 1509.1 25.7211C1509 26.5244 1509.57 27.2553 1510.37 27.3538C1511.18 27.4514 1511.91 26.88 1512.01 26.0766C1512.32 23.5093 1513.42 21.1755 1515.19 19.3276C1517.33 17.1021 1520.2 15.8074 1523.28 15.6816C1524.04 15.6503 1524.65 15.0392 1524.68 14.277C1524.81 11.1993 1526.1 8.32912 1528.33 6.19366C1532.92 1.7854 1540.35 1.84033 1544.88 6.31573C1548.47 9.85423 1549.43 15.2894 1547.28 19.8403C1546.44 21.6149 1546.82 23.7527 1548.23 25.1588L1556.93 33.8609L1542.86 47.9279L1534.16 39.2266C1532.75 37.8197 1530.61 37.4383 1528.84 38.2775C1524.29 40.429 1518.85 39.4677 1515.32 35.8834C1514.02 34.5734 1513.08 33.0155 1512.5 31.2524C1512.25 30.4826 1511.43 30.0614 1510.66 30.3117C1509.89 30.5619 1509.47 31.3882 1509.72 32.158C1510.43 34.3591 1511.61 36.3046 1513.23 37.9418C1517.64 42.4104 1524.42 43.6097 1530.09 40.9264C1530.75 40.6152 1531.55 40.7647 1532.09 41.2987L1540.79 50.0001L1532.09 58.7014C1531.55 59.2354 1530.75 59.385 1530.09 59.0737ZM1569.77 25.1588C1571.18 23.7527 1571.56 21.6149 1570.72 19.8403C1568.57 15.2894 1569.53 9.85423 1573.12 6.31573C1577.65 1.84033 1585.08 1.7854 1589.67 6.19366C1591.9 8.32836 1593.19 11.1993 1593.32 14.277C1593.35 15.0392 1593.96 15.6495 1594.72 15.6808C1597.8 15.8074 1600.67 17.1021 1602.81 19.3276C1607.21 23.9228 1607.16 31.3493 1602.68 35.8834C1599.15 39.4669 1593.71 40.429 1589.16 38.2775C1587.39 37.4383 1585.25 37.8197 1583.84 39.2266L1548.23 74.8413C1546.82 76.2474 1546.44 78.3852 1547.28 80.1598C1549.43 84.7115 1548.47 90.1467 1544.88 93.6844C1540.35 98.1606 1532.92 98.2147 1528.33 93.8065C1526.1 91.6718 1524.81 88.8008 1524.68 85.7231C1524.65 84.961 1524.04 84.3506 1523.28 84.3193C1520.2 84.1927 1517.33 82.898 1515.19 80.6725C1510.79 76.0773 1510.84 68.6509 1515.32 64.1175C1517.6 61.8073 1520.66 60.5866 1523.78 60.5866C1525.49 60.5866 1527.22 60.9581 1528.84 61.7226C1530.61 62.5618 1532.75 62.1804 1534.16 60.7735L1569.77 25.1588Z" fill="#666666"/>
</g>
<g clip-path="url(#clip14_1_293)">
<path d="M1666.51 63.5002C1667.06 64.0495 1668.01 64.0747 1668.58 63.5002C1669.15 62.928 1669.15 62.0003 1668.58 61.4281L1666.42 59.2636C1665.84 58.6914 1664.92 58.6914 1664.34 59.2636C1663.77 59.8358 1663.77 60.7636 1664.34 61.3358C1664.34 61.3358 1666.51 63.4995 1666.51 63.5002Z" fill="#222222"/>
<path d="M1690.43 39.5813C1690.99 40.1474 1691.94 40.1459 1692.5 39.5813C1693.07 39.0091 1693.07 38.0813 1692.5 37.5091L1690.34 35.3447C1689.76 34.7725 1688.84 34.7725 1688.26 35.3447C1687.69 35.9169 1687.69 36.8446 1688.26 37.4168C1688.26 37.4176 1690.43 39.5813 1690.43 39.5813Z" fill="#222222"/>
<path d="M1676.3 54.7676C1678.3 54.9018 1680.28 54.1076 1681.7 52.6962C1683.15 51.2466 1683.9 49.2813 1683.77 47.3045C1683.71 46.4965 1683.01 45.8862 1682.21 45.9404C1681.4 45.9945 1680.79 46.6934 1680.84 47.5006C1680.92 48.6343 1680.48 49.7726 1679.62 50.624C1678.77 51.4755 1677.63 51.9203 1676.5 51.844C1675.69 51.7898 1674.99 52.4002 1674.94 53.2081C1674.89 54.0153 1675.5 54.7134 1676.3 54.7676Z" fill="#222222"/>
<path d="M1650.09 59.0737C1644.42 56.3904 1637.64 57.5898 1633.23 62.0583C1627.65 67.7109 1627.58 76.9715 1633.08 82.7011C1635.44 85.1609 1638.52 86.7089 1641.86 87.1376C1642.29 90.4808 1643.84 93.5616 1646.3 95.9213C1649.14 98.6427 1652.84 100.001 1656.54 100C1660.31 100 1664.09 98.5878 1666.94 95.7703C1671.41 91.359 1672.61 84.5818 1669.93 78.907C1669.62 78.2479 1669.76 77.4468 1670.3 76.9135L1679 68.2122L1687.7 76.9135C1688.24 77.4475 1688.38 78.2486 1688.07 78.907C1685.39 84.5818 1686.59 91.359 1691.06 95.7703C1693.91 98.5878 1697.69 100 1701.46 100C1705.16 100 1708.86 98.6427 1711.7 95.9213C1714.16 93.5616 1715.71 90.4808 1716.14 87.1376C1719.48 86.7089 1722.56 85.1609 1724.92 82.7011C1726.71 80.8357 1727.98 78.5126 1728.59 75.985C1728.78 75.1984 1728.3 74.4057 1727.51 74.2157C1726.73 74.025 1725.94 74.5079 1725.75 75.2945C1725.25 77.3201 1724.24 79.1794 1722.81 80.6725C1720.67 82.898 1717.8 84.1927 1714.72 84.3193C1713.96 84.3506 1713.35 84.961 1713.32 85.7231C1713.19 88.8008 1711.9 91.6718 1709.67 93.8065C1705.08 98.2147 1697.65 98.1606 1693.12 93.6844C1689.53 90.1467 1688.57 84.7115 1690.72 80.1598C1691.56 78.3852 1691.18 76.2482 1689.77 74.8413L1681.07 66.14L1695.14 52.0722L1703.84 60.7743C1705.25 62.1804 1707.39 62.5618 1709.16 61.7226C1713.71 59.5711 1719.15 60.5332 1722.69 64.1175C1724.34 65.7914 1725.44 67.91 1725.88 70.2423C1726.03 71.0381 1726.79 71.5622 1727.59 71.4135C1728.38 71.2647 1728.91 70.4995 1728.76 69.7037C1728.21 66.7939 1726.84 64.1503 1724.77 62.0583C1720.36 57.5898 1713.58 56.3904 1707.91 59.0737C1707.25 59.385 1706.45 59.2354 1705.91 58.7014L1697.21 50.0001L1705.91 41.2987C1706.45 40.7647 1707.25 40.6159 1707.91 40.9272C1709.92 41.8809 1712.08 42.344 1714.22 42.344C1718.1 42.344 1721.93 40.8219 1724.77 37.9426C1730.35 32.29 1730.42 23.0287 1724.92 17.299C1722.56 14.8393 1719.48 13.2913 1716.14 12.8625C1715.71 9.5193 1714.16 6.43856 1711.7 4.07955C1705.97 -1.41818 1696.71 -1.35028 1691.06 4.22985C1686.59 8.64116 1685.39 15.4183 1688.07 21.0931C1688.38 21.7523 1688.24 22.5533 1687.7 23.0866L1679 31.788L1670.3 23.0866C1669.76 22.5533 1669.62 21.7523 1669.93 21.0931C1672.61 15.4183 1671.41 8.64116 1666.94 4.22985C1661.29 -1.35028 1652.03 -1.41818 1646.3 4.07879C1643.84 6.43856 1642.29 9.5193 1641.86 12.8625C1638.52 13.2913 1635.44 14.8393 1633.08 17.299C1630.86 19.6069 1629.49 22.5198 1629.1 25.7211C1629 26.5244 1629.57 27.2553 1630.37 27.3538C1631.18 27.4514 1631.91 26.88 1632.01 26.0766C1632.32 23.5093 1633.42 21.1755 1635.19 19.3276C1637.33 17.1021 1640.2 15.8074 1643.28 15.6816C1644.04 15.6503 1644.65 15.0392 1644.68 14.277C1644.81 11.1993 1646.1 8.32912 1648.33 6.19366C1652.92 1.7854 1660.35 1.84033 1664.88 6.31573C1668.47 9.85423 1669.43 15.2894 1667.28 19.8403C1666.44 21.6149 1666.82 23.7527 1668.23 25.1588L1676.93 33.8609L1662.86 47.9279L1654.16 39.2266C1652.75 37.8197 1650.61 37.4383 1648.84 38.2775C1644.29 40.429 1638.85 39.4677 1635.32 35.8834C1634.02 34.5734 1633.08 33.0155 1632.5 31.2524C1632.25 30.4826 1631.43 30.0614 1630.66 30.3117C1629.89 30.5619 1629.47 31.3882 1629.72 32.158C1630.43 34.3591 1631.61 36.3046 1633.23 37.9418C1637.64 42.4104 1644.42 43.6097 1650.09 40.9264C1650.75 40.6152 1651.55 40.7647 1652.09 41.2987L1660.79 50.0001L1652.09 58.7014C1651.55 59.2354 1650.75 59.385 1650.09 59.0737ZM1689.77 25.1588C1691.18 23.7527 1691.56 21.6149 1690.72 19.8403C1688.57 15.2894 1689.53 9.85423 1693.12 6.31573C1697.65 1.84033 1705.08 1.7854 1709.67 6.19366C1711.9 8.32836 1713.19 11.1993 1713.32 14.277C1713.35 15.0392 1713.96 15.6495 1714.72 15.6808C1717.8 15.8074 1720.67 17.1021 1722.81 19.3276C1727.21 23.9228 1727.16 31.3493 1722.68 35.8834C1719.15 39.4669 1713.71 40.429 1709.16 38.2775C1707.39 37.4383 1705.25 37.8197 1703.84 39.2266L1668.23 74.8413C1666.82 76.2474 1666.44 78.3852 1667.28 80.1598C1669.43 84.7115 1668.47 90.1467 1664.88 93.6844C1660.35 98.1606 1652.92 98.2147 1648.33 93.8065C1646.1 91.6718 1644.81 88.8008 1644.68 85.7231C1644.65 84.961 1644.04 84.3506 1643.28 84.3193C1640.2 84.1927 1637.33 82.898 1635.19 80.6725C1630.79 76.0773 1630.84 68.6509 1635.32 64.1175C1637.6 61.8073 1640.66 60.5866 1643.78 60.5866C1645.49 60.5866 1647.22 60.9581 1648.84 61.7226C1650.61 62.5618 1652.75 62.1804 1654.16 60.7735L1689.77 25.1588Z" fill="#222222"/>
</g>
<g clip-path="url(#clip15_1_293)">
<path d="M1906.51 63.5002C1907.06 64.0495 1908.01 64.0747 1908.58 63.5002C1909.15 62.928 1909.15 62.0003 1908.58 61.4281L1906.42 59.2636C1905.84 58.6914 1904.92 58.6914 1904.34 59.2636C1903.77 59.8358 1903.77 60.7636 1904.34 61.3358C1904.34 61.3358 1906.51 63.4995 1906.51 63.5002Z" fill="#222222"/>
<path d="M1916.3 54.7676C1918.3 54.9018 1920.28 54.1076 1921.7 52.6962C1923.15 51.2466 1923.9 49.2813 1923.77 47.3045C1923.71 46.4965 1923.01 45.8862 1922.21 45.9404C1921.4 45.9945 1920.79 46.6934 1920.84 47.5006C1920.92 48.6343 1920.48 49.7726 1919.62 50.624C1918.77 51.4755 1917.63 51.9203 1916.5 51.844C1915.69 51.7898 1914.99 52.4002 1914.94 53.2081C1914.89 54.0153 1915.5 54.7134 1916.3 54.7676Z" fill="#222222"/>
<path d="M1890.09 59.0737C1884.42 56.3904 1877.64 57.5898 1873.23 62.0583C1867.65 67.7109 1867.58 76.9715 1873.08 82.7011C1875.44 85.1609 1878.52 86.7089 1881.86 87.1376C1882.29 90.4808 1883.84 93.5616 1886.3 95.9213C1889.14 98.6427 1892.84 100.001 1896.54 100C1900.31 100 1904.09 98.5878 1906.94 95.7703C1911.41 91.359 1912.61 84.5818 1909.93 78.907C1909.62 78.2479 1909.76 77.4468 1910.3 76.9135L1919 68.2122L1927.7 76.9135C1928.24 77.4475 1928.38 78.2486 1928.07 78.907C1925.39 84.5818 1926.59 91.359 1931.06 95.7703C1933.91 98.5878 1937.69 100 1941.46 100C1945.16 100 1948.86 98.6427 1951.7 95.9213C1954.16 93.5616 1955.71 90.4808 1956.14 87.1376C1959.48 86.7089 1962.56 85.1609 1964.92 82.7011C1966.71 80.8357 1967.98 78.5126 1968.59 75.985C1968.78 75.1984 1968.3 74.4057 1967.51 74.2157C1966.73 74.025 1965.94 74.5079 1965.75 75.2945C1965.25 77.3201 1964.24 79.1794 1962.81 80.6725C1960.67 82.898 1957.8 84.1927 1954.72 84.3193C1953.96 84.3506 1953.35 84.961 1953.32 85.7231C1953.19 88.8008 1951.9 91.6718 1949.67 93.8065C1945.08 98.2147 1937.65 98.1606 1933.12 93.6844C1929.53 90.1467 1928.57 84.7115 1930.72 80.1598C1931.56 78.3852 1931.18 76.2482 1929.77 74.8413L1921.07 66.14L1935.14 52.0722L1943.84 60.7743C1945.25 62.1804 1947.39 62.5618 1949.16 61.7226C1953.71 59.5711 1959.15 60.5332 1962.69 64.1175C1964.34 65.7914 1965.44 67.91 1965.88 70.2423C1966.03 71.0381 1966.79 71.5622 1967.59 71.4135C1968.38 71.2647 1968.91 70.4995 1968.76 69.7037C1968.21 66.7939 1966.84 64.1503 1964.77 62.0583C1960.36 57.5898 1953.58 56.3904 1947.91 59.0737C1947.25 59.385 1946.45 59.2354 1945.91 58.7014L1937.21 50.0001L1945.91 41.2987C1946.45 40.7647 1947.25 40.6159 1947.91 40.9272C1949.92 41.8809 1952.08 42.344 1954.22 42.344C1958.1 42.344 1961.93 40.8219 1964.77 37.9426C1970.35 32.29 1970.42 23.0287 1964.92 17.299C1962.56 14.8393 1959.48 13.2913 1956.14 12.8625C1955.71 9.5193 1954.16 6.43856 1951.7 4.07955C1945.97 -1.41818 1936.71 -1.35028 1931.06 4.22985C1926.59 8.64116 1925.39 15.4183 1928.07 21.0931C1928.38 21.7523 1928.24 22.5533 1927.7 23.0866L1919 31.788L1910.3 23.0866C1909.76 22.5533 1909.62 21.7523 1909.93 21.0931C1912.61 15.4183 1911.41 8.64116 1906.94 4.22985C1901.29 -1.35028 1892.03 -1.41818 1886.3 4.07879C1883.84 6.43856 1882.29 9.5193 1881.86 12.8625C1878.52 13.2913 1875.44 14.8393 1873.08 17.299C1870.86 19.6069 1869.49 22.5198 1869.1 25.7211C1869 26.5244 1869.57 27.2553 1870.37 27.3538C1871.18 27.4514 1871.91 26.88 1872.01 26.0766C1872.32 23.5093 1873.42 21.1755 1875.19 19.3276C1877.33 17.1021 1880.2 15.8074 1883.28 15.6816C1884.04 15.6503 1884.65 15.0392 1884.68 14.277C1884.81 11.1993 1886.1 8.32912 1888.33 6.19366C1892.92 1.7854 1900.35 1.84033 1904.88 6.31573C1908.47 9.85423 1909.43 15.2894 1907.28 19.8403C1906.44 21.6149 1906.82 23.7527 1908.23 25.1588L1916.93 33.8609L1902.86 47.9279L1894.16 39.2266C1892.75 37.8197 1890.61 37.4383 1888.84 38.2775C1884.29 40.429 1878.85 39.4677 1875.32 35.8834C1874.02 34.5734 1873.08 33.0155 1872.5 31.2524C1872.25 30.4826 1871.43 30.0614 1870.66 30.3117C1869.89 30.5619 1869.47 31.3882 1869.72 32.158C1870.43 34.3591 1871.61 36.3046 1873.23 37.9418C1877.64 42.4104 1884.42 43.6097 1890.09 40.9264C1890.75 40.6152 1891.55 40.7647 1892.09 41.2987L1900.79 50.0001L1892.09 58.7014C1891.55 59.2354 1890.75 59.385 1890.09 59.0737ZM1929.77 25.1588C1931.18 23.7527 1931.56 21.6149 1930.72 19.8403C1928.57 15.2894 1929.53 9.85423 1933.12 6.31573C1937.65 1.84033 1945.08 1.7854 1949.67 6.19366C1951.9 8.32836 1953.19 11.1993 1953.32 14.277C1953.35 15.0392 1953.96 15.6495 1954.72 15.6808C1957.8 15.8074 1960.67 17.1021 1962.81 19.3276C1967.21 23.9228 1967.16 31.3493 1962.68 35.8834C1959.15 39.4669 1953.71 40.429 1949.16 38.2775C1947.39 37.4383 1945.25 37.8197 1943.84 39.2266L1908.23 74.8413C1906.82 76.2474 1906.44 78.3852 1907.28 80.1598C1909.43 84.7115 1908.47 90.1467 1904.88 93.6844C1900.35 98.1606 1892.92 98.2147 1888.33 93.8065C1886.1 91.6718 1884.81 88.8008 1884.68 85.7231C1884.65 84.961 1884.04 84.3506 1883.28 84.3193C1880.2 84.1927 1877.33 82.898 1875.19 80.6725C1870.79 76.0773 1870.84 68.6509 1875.32 64.1175C1877.6 61.8073 1880.66 60.5866 1883.78 60.5866C1885.49 60.5866 1887.22 60.9581 1888.84 61.7226C1890.61 62.5618 1892.75 62.1804 1894.16 60.7735L1929.77 25.1588Z" fill="#222222"/>
</g>
<g clip-path="url(#clip16_1_293)">
<path d="M1786.51 63.5002C1787.06 64.0495 1788.01 64.0747 1788.58 63.5002C1789.15 62.928 1789.15 62.0003 1788.58 61.4281L1786.42 59.2636C1785.84 58.6914 1784.92 58.6914 1784.34 59.2636C1783.77 59.8358 1783.77 60.7636 1784.34 61.3358C1784.34 61.3358 1786.51 63.4995 1786.51 63.5002Z" fill="#666666"/>
<path d="M1810.43 39.5813C1810.99 40.1474 1811.94 40.1459 1812.5 39.5813C1813.07 39.0091 1813.07 38.0813 1812.5 37.5091L1810.34 35.3447C1809.76 34.7725 1808.84 34.7725 1808.26 35.3447C1807.69 35.9169 1807.69 36.8446 1808.26 37.4168C1808.26 37.4176 1810.43 39.5813 1810.43 39.5813Z" fill="#666666"/>
<path d="M1796.3 54.7676C1798.3 54.9018 1800.28 54.1076 1801.7 52.6962C1803.15 51.2466 1803.9 49.2813 1803.77 47.3045C1803.71 46.4965 1803.01 45.8862 1802.21 45.9404C1801.4 45.9945 1800.79 46.6934 1800.84 47.5006C1800.92 48.6343 1800.48 49.7726 1799.62 50.624C1798.77 51.4755 1797.63 51.9203 1796.5 51.844C1795.69 51.7898 1794.99 52.4002 1794.94 53.2081C1794.89 54.0153 1795.5 54.7134 1796.3 54.7676Z" fill="#666666"/>
<path d="M1770.09 59.0737C1764.42 56.3904 1757.64 57.5898 1753.23 62.0583C1747.65 67.7109 1747.58 76.9715 1753.08 82.7011C1755.44 85.1609 1758.52 86.7089 1761.86 87.1376C1762.29 90.4808 1763.84 93.5616 1766.3 95.9213C1769.14 98.6427 1772.84 100.001 1776.54 100C1780.31 100 1784.09 98.5878 1786.94 95.7703C1791.41 91.359 1792.61 84.5818 1789.93 78.907C1789.62 78.2479 1789.76 77.4468 1790.3 76.9135L1799 68.2122L1807.7 76.9135C1808.24 77.4475 1808.38 78.2486 1808.07 78.907C1805.39 84.5818 1806.59 91.359 1811.06 95.7703C1813.91 98.5878 1817.69 100 1821.46 100C1825.16 100 1828.86 98.6427 1831.7 95.9213C1834.16 93.5616 1835.71 90.4808 1836.14 87.1376C1839.48 86.7089 1842.56 85.1609 1844.92 82.7011C1846.71 80.8357 1847.98 78.5126 1848.59 75.985C1848.78 75.1984 1848.3 74.4057 1847.51 74.2157C1846.73 74.025 1845.94 74.5079 1845.75 75.2945C1845.25 77.3201 1844.24 79.1794 1842.81 80.6725C1840.67 82.898 1837.8 84.1927 1834.72 84.3193C1833.96 84.3506 1833.35 84.961 1833.32 85.7231C1833.19 88.8008 1831.9 91.6718 1829.67 93.8065C1825.08 98.2147 1817.65 98.1606 1813.12 93.6844C1809.53 90.1467 1808.57 84.7115 1810.72 80.1598C1811.56 78.3852 1811.18 76.2482 1809.77 74.8413L1801.07 66.14L1815.14 52.0722L1823.84 60.7743C1825.25 62.1804 1827.39 62.5618 1829.16 61.7226C1833.71 59.5711 1839.15 60.5332 1842.69 64.1175C1844.34 65.7914 1845.44 67.91 1845.88 70.2423C1846.03 71.0381 1846.79 71.5622 1847.59 71.4135C1848.38 71.2647 1848.91 70.4995 1848.76 69.7037C1848.21 66.7939 1846.84 64.1503 1844.77 62.0583C1840.36 57.5898 1833.58 56.3904 1827.91 59.0737C1827.25 59.385 1826.45 59.2354 1825.91 58.7014L1817.21 50.0001L1825.91 41.2987C1826.45 40.7647 1827.25 40.6159 1827.91 40.9272C1829.92 41.8809 1832.08 42.344 1834.22 42.344C1838.1 42.344 1841.93 40.8219 1844.77 37.9426C1850.35 32.29 1850.42 23.0287 1844.92 17.299C1842.56 14.8393 1839.48 13.2913 1836.14 12.8625C1835.71 9.5193 1834.16 6.43856 1831.7 4.07955C1825.97 -1.41818 1816.71 -1.35028 1811.06 4.22985C1806.59 8.64116 1805.39 15.4183 1808.07 21.0931C1808.38 21.7523 1808.24 22.5533 1807.7 23.0866L1799 31.788L1790.3 23.0866C1789.76 22.5533 1789.62 21.7523 1789.93 21.0931C1792.61 15.4183 1791.41 8.64116 1786.94 4.22985C1781.29 -1.35028 1772.03 -1.41818 1766.3 4.07879C1763.84 6.43856 1762.29 9.5193 1761.86 12.8625C1758.52 13.2913 1755.44 14.8393 1753.08 17.299C1750.86 19.6069 1749.49 22.5198 1749.1 25.7211C1749 26.5244 1749.57 27.2553 1750.37 27.3538C1751.18 27.4514 1751.91 26.88 1752.01 26.0766C1752.32 23.5093 1753.42 21.1755 1755.19 19.3276C1757.33 17.1021 1760.2 15.8074 1763.28 15.6816C1764.04 15.6503 1764.65 15.0392 1764.68 14.277C1764.81 11.1993 1766.1 8.32912 1768.33 6.19366C1772.92 1.7854 1780.35 1.84033 1784.88 6.31573C1788.47 9.85423 1789.43 15.2894 1787.28 19.8403C1786.44 21.6149 1786.82 23.7527 1788.23 25.1588L1796.93 33.8609L1782.86 47.9279L1774.16 39.2266C1772.75 37.8197 1770.61 37.4383 1768.84 38.2775C1764.29 40.429 1758.85 39.4677 1755.32 35.8834C1754.02 34.5734 1753.08 33.0155 1752.5 31.2524C1752.25 30.4826 1751.43 30.0614 1750.66 30.3117C1749.89 30.5619 1749.47 31.3882 1749.72 32.158C1750.43 34.3591 1751.61 36.3046 1753.23 37.9418C1757.64 42.4104 1764.42 43.6097 1770.09 40.9264C1770.75 40.6152 1771.55 40.7647 1772.09 41.2987L1780.79 50.0001L1772.09 58.7014C1771.55 59.2354 1770.75 59.385 1770.09 59.0737ZM1809.77 25.1588C1811.18 23.7527 1811.56 21.6149 1810.72 19.8403C1808.57 15.2894 1809.53 9.85423 1813.12 6.31573C1817.65 1.84033 1825.08 1.7854 1829.67 6.19366C1831.9 8.32836 1833.19 11.1993 1833.32 14.277C1833.35 15.0392 1833.96 15.6495 1834.72 15.6808C1837.8 15.8074 1840.67 17.1021 1842.81 19.3276C1847.21 23.9228 1847.16 31.3493 1842.68 35.8834C1839.15 39.4669 1833.71 40.429 1829.16 38.2775C1827.39 37.4383 1825.25 37.8197 1823.84 39.2266L1788.23 74.8413C1786.82 76.2474 1786.44 78.3852 1787.28 80.1598C1789.43 84.7115 1788.47 90.1467 1784.88 93.6844C1780.35 98.1606 1772.92 98.2147 1768.33 93.8065C1766.1 91.6718 1764.81 88.8008 1764.68 85.7231C1764.65 84.961 1764.04 84.3506 1763.28 84.3193C1760.2 84.1927 1757.33 82.898 1755.19 80.6725C1750.79 76.0773 1750.84 68.6509 1755.32 64.1175C1757.6 61.8073 1760.66 60.5866 1763.78 60.5866C1765.49 60.5866 1767.22 60.9581 1768.84 61.7226C1770.61 62.5618 1772.75 62.1804 1774.16 60.7735L1809.77 25.1588Z" fill="#666666"/>
</g>
<defs>
<clipPath id="clip0_1_293">
<rect width="100" height="100" fill="white" transform="translate(-51)"/>
</clipPath>
<clipPath id="clip1_1_293">
<rect width="100" height="100" fill="white" transform="translate(69)"/>
</clipPath>
<clipPath id="clip2_1_293">
<rect width="100" height="100" fill="white" transform="translate(189)"/>
</clipPath>
<clipPath id="clip3_1_293">
<rect width="100" height="100" fill="white" transform="translate(309)"/>
</clipPath>
<clipPath id="clip4_1_293">
<rect width="100" height="100" fill="white" transform="translate(429)"/>
</clipPath>
<clipPath id="clip5_1_293">
<rect width="100" height="100" fill="white" transform="translate(549)"/>
</clipPath>
<clipPath id="clip6_1_293">
<rect width="100" height="100" fill="white" transform="translate(669)"/>
</clipPath>
<clipPath id="clip7_1_293">
<rect width="100" height="100" fill="white" transform="translate(789)"/>
</clipPath>
<clipPath id="clip8_1_293">
<rect width="100" height="100" fill="white" transform="translate(909)"/>
</clipPath>
<clipPath id="clip9_1_293">
<rect width="100" height="100" fill="white" transform="translate(1029)"/>
</clipPath>
<clipPath id="clip10_1_293">
<rect width="100" height="100" fill="white" transform="translate(1149)"/>
</clipPath>
<clipPath id="clip11_1_293">
<rect width="100" height="100" fill="white" transform="translate(1269)"/>
</clipPath>
<clipPath id="clip12_1_293">
<rect width="100" height="100" fill="white" transform="translate(1389)"/>
</clipPath>
<clipPath id="clip13_1_293">
<rect width="100" height="100" fill="white" transform="translate(1509)"/>
</clipPath>
<clipPath id="clip14_1_293">
<rect width="100" height="100" fill="white" transform="translate(1629)"/>
</clipPath>
<clipPath id="clip15_1_293">
<rect width="100" height="100" fill="white" transform="translate(1869)"/>
</clipPath>
<clipPath id="clip16_1_293">
<rect width="100" height="100" fill="white" transform="translate(1749)"/>
</clipPath>
</defs>
</svg>
